<?xml version="1.0" encoding="UTF-8"?>
<!DOCTYPE svg PUBLIC "-//W3C//DTD SVG 1.1//EN" "http://www.w3.org/Graphics/SVG/1.1/DTD/svg11.dtd">
<svg xmlns="http://www.w3.org/2000/svg" version="1.1" width="390px" height="158px" style="shape-rendering:geometricPrecision; text-rendering:geometricPrecision; image-rendering:optimizeQuality; fill-rule:evenodd; clip-rule:evenodd" xmlns:xlink="http://www.w3.org/1999/xlink">
<g><path style="opacity:1" fill="#fefefe" d="M -0.5,-0.5 C 129.5,-0.5 259.5,-0.5 389.5,-0.5C 389.5,37.1667 389.5,74.8333 389.5,112.5C 389.167,112.5 388.833,112.5 388.5,112.5C 387.5,112.5 386.5,112.5 385.5,112.5C 385.232,109.881 385.565,107.381 386.5,105C 383.189,100.033 379.522,99.5329 375.5,103.5C 374.71,102.599 373.71,101.932 372.5,101.5C 371.732,102.263 371.232,103.263 371,104.5C 370.11,98.8539 369.11,98.5206 368,103.5C 367.51,102.207 367.343,100.873 367.5,99.5C 366.71,98.5987 365.71,97.9321 364.5,97.5C 363.732,98.2625 363.232,99.2625 363,100.5C 362.377,96.0684 361.377,95.7351 360,99.5C 359.581,95.1482 358.914,94.8149 358,98.5C 357.11,92.8539 356.11,92.5206 355,97.5C 354.939,94.723 353.772,92.723 351.5,91.5C 351.158,90.6618 350.492,90.3284 349.5,90.5C 349.5,89.5 349.5,88.5 349.5,87.5C 348.5,87.5 347.5,87.5 346.5,87.5C 347.074,83.7334 345.907,80.7334 343,78.5C 339.955,80.7193 338.789,83.7193 339.5,87.5C 338.5,87.5 337.5,87.5 336.5,87.5C 336.5,88.8333 336.5,90.1667 336.5,91.5C 336.5,91.8333 336.5,92.1667 336.5,92.5C 336.5,94.1667 336.5,95.8333 336.5,97.5C 336.5,97.8333 336.5,98.1667 336.5,98.5C 336.5,101.833 336.5,105.167 336.5,108.5C 340.833,109.833 345.167,109.833 349.5,108.5C 349.833,108.5 350.167,108.5 350.5,108.5C 356.712,111.773 363.046,114.773 369.5,117.5C 370.833,118.5 370.833,119.5 369.5,120.5C 369.167,120.5 368.833,120.5 368.5,120.5C 367.29,120.932 366.29,121.599 365.5,122.5C 364.209,122.263 363.209,122.596 362.5,123.5C 361.833,123.833 361.167,124.167 360.5,124.5C 359.833,124.5 359.5,124.833 359.5,125.5C 358.209,125.263 357.209,125.596 356.5,126.5C 355.833,126.833 355.167,127.167 354.5,127.5C 352.836,128.949 352.002,130.949 352,133.5C 350.672,128.437 349.672,128.771 349,134.5C 347.672,129.437 346.672,129.771 346,135.5C 345.751,134.376 345.251,133.376 344.5,132.5C 343.83,134.291 343.163,135.958 342.5,137.5C 342.768,135.901 342.434,134.568 341.5,133.5C 341.5,131.833 341.5,130.167 341.5,128.5C 341.5,127.833 341.5,127.167 341.5,126.5C 341.5,124.833 341.5,123.167 341.5,121.5C 340.432,120.566 339.099,120.232 337.5,120.5C 337.5,117.833 337.5,115.167 337.5,112.5C 335.797,109.808 333.464,107.808 330.5,106.5C 328.641,108.192 326.641,109.692 324.5,111C 323.262,111.69 323.262,112.19 324.5,112.5C 324.5,115.167 324.5,117.833 324.5,120.5C 322.585,120.216 320.919,120.549 319.5,121.5C 319.5,123.167 319.5,124.833 319.5,126.5C 319.5,127.167 319.5,127.833 319.5,128.5C 319.5,131.833 319.5,135.167 319.5,138.5C 319.5,138.833 319.5,139.167 319.5,139.5C 319.824,143.555 319.491,147.555 318.5,151.5C 317.5,151.167 316.833,150.5 316.5,149.5C 318.102,146.471 317.269,144.471 314,143.5C 312.135,143.706 310.468,144.372 309,145.5C 307.739,145.241 306.739,144.574 306,143.5C 305.502,140.518 305.335,137.518 305.5,134.5C 305.5,132.5 305.5,130.5 305.5,128.5C 307.735,128.795 309.735,128.461 311.5,127.5C 311.918,126.778 312.584,126.278 313.5,126C 310.854,125.503 308.187,125.336 305.5,125.5C 305.286,123.856 305.62,122.356 306.5,121C 309.432,120.047 312.432,119.547 315.5,119.5C 315.5,118.167 315.5,116.833 315.5,115.5C 316.5,115.5 317.5,115.5 318.5,115.5C 318.325,112.671 319.658,111.004 322.5,110.5C 318.197,109.751 313.864,109.918 309.5,111C 293.773,111.985 278.107,111.485 262.5,109.5C 260.97,109.36 259.97,108.693 259.5,107.5C 260.112,104.304 260.112,101.304 259.5,98.5C 258.209,98.7373 257.209,98.404 256.5,97.5C 256.094,92.0912 255.427,86.7578 254.5,81.5C 254.5,78.8333 254.5,76.1667 254.5,73.5C 254.784,71.5853 254.451,69.9187 253.5,68.5C 253.5,64.8333 253.5,61.1667 253.5,57.5C 253.81,54.2869 253.477,51.2869 252.5,48.5C 252.5,47.8333 252.5,47.1667 252.5,46.5C 252.666,39.825 252.5,33.1583 252,26.5C 250.054,21.327 248.721,15.9936 248,10.5C 247.974,16.7367 246.474,22.5701 243.5,28C 244.322,30.4339 244.656,32.9339 244.5,35.5C 243.511,40.9753 243.178,46.642 243.5,52.5C 243.5,54.8333 243.5,57.1667 243.5,59.5C 242.523,62.2869 242.19,65.2869 242.5,68.5C 242.5,70.8333 242.5,73.1667 242.5,75.5C 241.549,76.9187 241.216,78.5853 241.5,80.5C 241.5,83.1667 241.5,85.8333 241.5,88.5C 240.549,89.9187 240.216,91.5853 240.5,93.5C 240.5,94.8333 240.5,96.1667 240.5,97.5C 239.167,97.5 237.833,97.5 236.5,97.5C 236.216,99.4147 236.549,101.081 237.5,102.5C 237.5,103.833 237.5,105.167 237.5,106.5C 237.167,108.5 236.833,110.5 236.5,112.5C 234.194,116.085 232.861,120.085 232.5,124.5C 231.5,124.5 230.5,124.5 229.5,124.5C 229.016,128.47 227.683,132.136 225.5,135.5C 222.928,139.639 220.595,143.973 218.5,148.5C 217.007,152.412 216.34,152.079 216.5,147.5C 210.833,147.5 205.167,147.5 199.5,147.5C 199.843,149.483 199.176,150.817 197.5,151.5C 197.5,144.833 197.5,138.167 197.5,131.5C 197.5,131.167 197.5,130.833 197.5,130.5C 197.949,128.023 197.283,126.023 195.5,124.5C 193.717,126.023 193.051,128.023 193.5,130.5C 193.5,133.5 193.5,136.5 193.5,139.5C 193.5,140.167 193.5,140.833 193.5,141.5C 193.5,143.833 193.5,146.167 193.5,148.5C 193.5,148.833 193.5,149.167 193.5,149.5C 193.179,151.048 192.179,151.715 190.5,151.5C 190.666,146.489 190.499,141.489 190,136.5C 189.586,136.043 189.086,135.709 188.5,135.5C 187.571,136.689 187.238,138.022 187.5,139.5C 188.089,143.971 187.423,147.971 185.5,151.5C 185.815,147.629 185.482,143.962 184.5,140.5C 183.292,139.766 181.959,139.433 180.5,139.5C 180.546,134.15 178.546,132.817 174.5,135.5C 170.167,135.5 165.833,135.5 161.5,135.5C 157.454,132.817 155.454,134.15 155.5,139.5C 153.901,139.232 152.568,139.566 151.5,140.5C 151.5,144.167 151.5,147.833 151.5,151.5C 150.5,151.5 149.5,151.5 148.5,151.5C 147.833,130.167 147.167,130.167 146.5,151.5C 145.5,151.5 144.5,151.5 143.5,151.5C 143.5,144.833 143.5,138.167 143.5,131.5C 142.316,130.312 142.316,129.145 143.5,128C 141.558,123.406 139.892,123.572 138.5,128.5C 139.126,135.584 138.459,142.25 136.5,148.5C 133.5,147.833 130.5,147.167 127.5,146.5C 127.833,144.5 128.167,142.5 128.5,140.5C 128.34,138.801 128.506,137.134 129,135.5C 130.292,134.209 131.458,134.209 132.5,135.5C 132.091,139.264 132.091,142.93 132.5,146.5C 133.658,141.901 134.325,137.234 134.5,132.5C 134.714,129.423 135.381,126.09 136.5,122.5C 136.376,121.893 136.043,121.56 135.5,121.5C 135.5,121.167 135.5,120.833 135.5,120.5C 136.461,118.735 136.795,116.735 136.5,114.5C 137.167,114.5 137.5,114.167 137.5,113.5C 137.043,110.976 137.043,108.309 137.5,105.5C 138.167,105.5 138.5,105.167 138.5,104.5C 138.719,100.516 138.719,96.6823 138.5,93C 139.218,90.5393 139.885,88.0393 140.5,85.5C 137.013,84.4912 135.68,82.1578 136.5,78.5C 136.721,77.2652 137.388,76.2652 138.5,75.5C 133.036,74.2962 127.536,73.2962 122,72.5C 121.5,72.8333 121,73.1667 120.5,73.5C 121.246,74.7362 121.579,76.0695 121.5,77.5C 120.549,78.9187 120.216,80.5853 120.5,82.5C 119.167,82.5 117.833,82.5 116.5,82.5C 116.296,85.5176 115.963,88.5176 115.5,91.5C 115.158,93.4748 114.825,95.8082 114.5,98.5C 113.454,100.785 113.454,103.118 114.5,105.5C 113.662,105.842 113.328,106.508 113.5,107.5C 112.646,109.035 112.646,110.368 113.5,111.5C 112.88,114.34 112.213,117.174 111.5,120C 112.167,120.333 112.833,120.667 113.5,121C 112.133,123.301 111.466,125.801 111.5,128.5C 110.991,133.507 110.324,138.84 109.5,144.5C 109.685,145.584 110.018,146.584 110.5,147.5C 108.035,147.767 105.701,148.434 103.5,149.5C 102.517,145.702 102.183,141.702 102.5,137.5C 101.258,119.609 101.258,101.776 102.5,84C 100.652,82.482 99.152,80.6487 98,78.5C 97.3076,79.0253 96.8076,79.6919 96.5,80.5C 91.241,80.9055 86.241,82.0722 81.5,84C 81.7284,84.3988 82.0618,84.5654 82.5,84.5C 82.5,91.5 82.5,98.5 82.5,105.5C 80.8333,105.5 79.1667,105.5 77.5,105.5C 77.4027,101.651 77.0694,97.8173 76.5,94C 76.691,91.9501 77.3576,90.1168 78.5,88.5C 77.1667,87.1667 75.8333,87.1667 74.5,88.5C 75.733,94.1523 75.733,99.8189 74.5,105.5C 72.5,105.5 70.5,105.5 68.5,105.5C 68.1868,98.2454 68.5201,91.0787 69.5,84C 65.0945,82.0931 60.4278,80.9265 55.5,80.5C 55.1924,79.6919 54.6924,79.0253 54,78.5C 52.9331,80.6917 51.4331,82.3583 49.5,83.5C 49.4446,94.9192 49.4446,106.586 49.5,118.5C 48.5489,117.081 48.2155,115.415 48.5,113.5C 33.5,113.5 18.5,113.5 3.5,113.5C 3.5,115.167 3.5,116.833 3.5,118.5C -0.133134,118.443 -0.2998,119.443 3,121.5C 3.49981,131.494 3.66648,141.494 3.5,151.5C 2.16667,151.5 0.833333,151.5 -0.5,151.5C -0.5,100.833 -0.5,50.1667 -0.5,-0.5 Z"/></g>
<g><path style="opacity:1" fill="#3699d7" d="M 252.5,46.5 C 251.549,45.0813 251.216,43.4147 251.5,41.5C 249.239,42.4092 247.072,42.7425 245,42.5C 244.333,41.5 244.333,40.5 245,39.5C 247.072,39.2575 249.239,39.5908 251.5,40.5C 251.5,39.5 251.5,38.5 251.5,37.5C 250.022,37.762 248.689,37.4287 247.5,36.5C 248.833,36.1667 250.167,35.8333 251.5,35.5C 251,34.5 250.5,33.5 250,32.5C 249.107,33.7112 248.274,33.7112 247.5,32.5C 249.981,31.1404 249.648,30.1404 246.5,29.5C 246.306,31.0701 246.306,32.5701 246.5,34C 245.809,35.0674 245.309,36.2341 245,37.5C 244.536,36.9056 244.369,36.2389 244.5,35.5C 244.656,32.9339 244.322,30.4339 243.5,28C 246.474,22.5701 247.974,16.7367 248,10.5C 248.721,15.9936 250.054,21.327 252,26.5C 252.5,33.1583 252.666,39.825 252.5,46.5 Z"/></g>
<g><path style="opacity:1" fill="#7fc1e6" d="M 252.5,46.5 C 252.5,47.1667 252.5,47.8333 252.5,48.5C 249.841,48.1129 247.174,48.6129 244.5,50C 245.448,50.4828 246.448,50.6495 247.5,50.5C 247.5,51.5 247.5,52.5 247.5,53.5C 246.041,53.5674 244.708,53.2341 243.5,52.5C 243.178,46.642 243.511,40.9753 244.5,35.5C 244.369,36.2389 244.536,36.9056 245,37.5C 245.309,36.2341 245.809,35.0674 246.5,34C 246.306,32.5701 246.306,31.0701 246.5,29.5C 249.648,30.1404 249.981,31.1404 247.5,32.5C 248.274,33.7112 249.107,33.7112 250,32.5C 250.5,33.5 251,34.5 251.5,35.5C 250.167,35.8333 248.833,36.1667 247.5,36.5C 248.689,37.4287 250.022,37.762 251.5,37.5C 251.5,38.5 251.5,39.5 251.5,40.5C 249.239,39.5908 247.072,39.2575 245,39.5C 244.333,40.5 244.333,41.5 245,42.5C 247.072,42.7425 249.239,42.4092 251.5,41.5C 251.216,43.4147 251.549,45.0813 252.5,46.5 Z"/></g>
<g><path style="opacity:1" fill="#8fcaea" d="M 252.5,48.5 C 253.477,51.2869 253.81,54.2869 253.5,57.5C 252.624,57.3691 251.957,57.7025 251.5,58.5C 252.246,59.7362 252.579,61.0695 252.5,62.5C 250.654,62.7778 249.32,62.1112 248.5,60.5C 249.33,58.8651 249.497,57.1984 249,55.5C 250,54.1667 251,54.1667 252,55.5C 252.667,54.5 252.667,53.5 252,52.5C 250.817,53.731 249.651,53.731 248.5,52.5C 249.289,50.5121 250.455,50.1787 252,51.5C 252.483,50.552 252.649,49.552 252.5,48.5 Z"/></g>
<g><path style="opacity:1" fill="#88c5e8" d="M 247.5,70.5 C 245.124,71.8166 243.457,71.1499 242.5,68.5C 242.19,65.2869 242.523,62.2869 243.5,59.5C 244.065,57.6136 245.065,55.9469 246.5,54.5C 247.48,57.0865 247.813,59.7531 247.5,62.5C 242.167,62.8333 242.167,63.1667 247.5,63.5C 247.5,65.8333 247.5,68.1667 247.5,70.5 Z"/></g>
<g><path style="opacity:1" fill="#158ed3" d="M 252.5,48.5 C 252.649,49.552 252.483,50.552 252,51.5C 250.455,50.1787 249.289,50.5121 248.5,52.5C 249.651,53.731 250.817,53.731 252,52.5C 252.667,53.5 252.667,54.5 252,55.5C 251,54.1667 250,54.1667 249,55.5C 249.497,57.1984 249.33,58.8651 248.5,60.5C 249.32,62.1112 250.654,62.7778 252.5,62.5C 252.579,61.0695 252.246,59.7362 251.5,58.5C 251.957,57.7025 252.624,57.3691 253.5,57.5C 253.5,61.1667 253.5,64.8333 253.5,68.5C 252.935,66.6136 251.935,64.9469 250.5,63.5C 249.5,63.8333 248.833,64.5 248.5,65.5C 248.986,67.3039 249.319,68.9706 249.5,70.5C 249.5,72.8333 249.5,75.1667 249.5,77.5C 250.535,79.205 250.535,80.8716 249.5,82.5C 249.977,83.4776 250.643,84.3109 251.5,85C 250.572,85.3879 249.905,86.0546 249.5,87C 250.772,89.8556 251.106,92.689 250.5,95.5C 251.648,98.7086 253.648,99.3753 256.5,97.5C 257.209,98.404 258.209,98.7373 259.5,98.5C 259.52,100.143 258.853,101.476 257.5,102.5C 258.246,103.736 258.579,105.07 258.5,106.5C 257.167,106.5 255.833,106.5 254.5,106.5C 250.629,106.185 246.962,106.518 243.5,107.5C 241.621,106.659 239.621,106.325 237.5,106.5C 237.5,105.167 237.5,103.833 237.5,102.5C 237.926,101.472 237.926,100.139 237.5,98.5C 238.791,98.7373 239.791,98.404 240.5,97.5C 240.5,96.1667 240.5,94.8333 240.5,93.5C 241.423,92.6971 242.423,92.5304 243.5,93C 241.845,94.4443 241.178,96.2776 241.5,98.5C 244.997,98.005 245.997,96.1717 244.5,93C 246.727,92.296 247.06,91.1294 245.5,89.5C 246.833,87.8333 246.833,86.1667 245.5,84.5C 246.478,84.189 247.145,83.5223 247.5,82.5C 247.197,80.4706 246.864,78.4706 246.5,76.5C 247.341,74.6208 247.675,72.6208 247.5,70.5C 247.5,68.1667 247.5,65.8333 247.5,63.5C 242.167,63.1667 242.167,62.8333 247.5,62.5C 247.813,59.7531 247.48,57.0865 246.5,54.5C 245.065,55.9469 244.065,57.6136 243.5,59.5C 243.5,57.1667 243.5,54.8333 243.5,52.5C 244.708,53.2341 246.041,53.5674 247.5,53.5C 247.5,52.5 247.5,51.5 247.5,50.5C 246.448,50.6495 245.448,50.4828 244.5,50C 247.174,48.6129 249.841,48.1129 252.5,48.5 Z"/></g>
<g><path style="opacity:1" fill="#86c5e8" d="M 253.5,68.5 C 254.451,69.9187 254.784,71.5853 254.5,73.5C 249.605,76.2 249.272,75.5333 253.5,71.5C 252.309,71.5953 250.975,71.262 249.5,70.5C 249.319,68.9706 248.986,67.3039 248.5,65.5C 248.833,64.5 249.5,63.8333 250.5,63.5C 251.935,64.9469 252.935,66.6136 253.5,68.5 Z"/></g>
<g><path style="opacity:1" fill="#53abde" d="M 242.5,68.5 C 243.457,71.1499 245.124,71.8166 247.5,70.5C 247.675,72.6208 247.341,74.6208 246.5,76.5C 245.417,76.5394 244.417,76.8728 243.5,77.5C 242.702,77.0431 242.369,76.3764 242.5,75.5C 242.5,73.1667 242.5,70.8333 242.5,68.5 Z"/></g>
<g><path style="opacity:1" fill="#399ad7" d="M 136.5,78.5 C 135.549,79.9187 135.216,81.5853 135.5,83.5C 132.075,83.6332 131.742,82.9665 134.5,81.5C 134.5,80.5 134.5,79.5 134.5,78.5C 133.5,78.5 132.5,78.5 131.5,78.5C 131.5,79.5 131.5,80.5 131.5,81.5C 128.696,82.6378 125.696,82.8045 122.5,82C 121.62,80.6439 121.286,79.1439 121.5,77.5C 121.579,76.0695 121.246,74.7362 120.5,73.5C 121,73.1667 121.5,72.8333 122,72.5C 127.536,73.2962 133.036,74.2962 138.5,75.5C 137.388,76.2652 136.721,77.2652 136.5,78.5 Z"/></g>
<g><path style="opacity:1" fill="#4ca8dd" d="M 249.5,70.5 C 250.975,71.262 252.309,71.5953 253.5,71.5C 249.272,75.5333 249.605,76.2 254.5,73.5C 254.5,76.1667 254.5,78.8333 254.5,81.5C 253.624,81.6309 252.957,81.2975 252.5,80.5C 253.8,77.1335 252.8,76.1335 249.5,77.5C 249.5,75.1667 249.5,72.8333 249.5,70.5 Z"/></g>
<g><path style="opacity:1" fill="#fdfefe" d="M 123.5,77.5 C 125.465,77.9483 125.798,78.9483 124.5,80.5C 123.614,79.675 123.281,78.675 123.5,77.5 Z"/></g>
<g><path style="opacity:1" fill="#f3f9fc" d="M 127.5,77.5 C 128.586,77.62 129.253,78.2867 129.5,79.5C 129.167,80.1667 128.833,80.8333 128.5,81.5C 127.571,80.3112 127.238,78.9778 127.5,77.5 Z"/></g>
<g><path style="opacity:1" fill="#c3e3f4" d="M 205.5,74.5 C 205.461,75.5832 205.127,76.5832 204.5,77.5C 206.766,78.3142 209.1,78.8142 211.5,79C 211,79.5 210.5,80 210,80.5C 208.049,80.4023 206.215,80.4023 204.5,80.5C 203.853,79.7261 203.52,78.7261 203.5,77.5C 203.64,75.9704 204.307,74.9704 205.5,74.5 Z"/></g>
<g><path style="opacity:1" fill="#0f8bd2" d="M 77.5,105.5 C 79.2646,106.461 81.2646,106.795 83.5,106.5C 83.825,98.9809 83.4916,91.6476 82.5,84.5C 82.0618,84.5654 81.7284,84.3988 81.5,84C 86.241,82.0722 91.241,80.9055 96.5,80.5C 96.8076,79.6919 97.3076,79.0253 98,78.5C 99.152,80.6487 100.652,82.482 102.5,84C 101.258,101.776 101.258,119.609 102.5,137.5C 101.189,141.683 101.189,146.016 102.5,150.5C 103.107,150.376 103.44,150.043 103.5,149.5C 105.701,148.434 108.035,147.767 110.5,147.5C 111.492,147.672 112.158,147.338 112.5,146.5C 113.5,146.5 114.5,146.5 115.5,146.5C 119.5,146.5 123.5,146.5 127.5,146.5C 130.5,147.167 133.5,147.833 136.5,148.5C 138.974,149.105 141.307,150.105 143.5,151.5C 144.5,151.5 145.5,151.5 146.5,151.5C 147.167,130.167 147.833,130.167 148.5,151.5C 149.5,151.5 150.5,151.5 151.5,151.5C 151.5,147.833 151.5,144.167 151.5,140.5C 152.833,140.5 154.167,140.5 155.5,140.5C 155.185,144.371 155.518,148.038 156.5,151.5C 157.397,150.402 158.23,150.402 159,151.5C 159.483,150.552 159.649,149.552 159.5,148.5C 159.5,147.833 159.5,147.167 159.5,146.5C 159.5,145.167 159.5,143.833 159.5,142.5C 159.119,141.069 158.119,140.236 156.5,140C 158.503,139.665 160.17,138.832 161.5,137.5C 161.173,142.544 161.506,147.544 162.5,152.5C 163.107,152.376 163.44,152.043 163.5,151.5C 163.5,147.5 163.5,143.5 163.5,139.5C 166.5,139.5 169.5,139.5 172.5,139.5C 172.176,143.555 172.509,147.555 173.5,151.5C 174.493,146.88 174.827,142.214 174.5,137.5C 175.83,138.832 177.497,139.665 179.5,140C 177.881,140.236 176.881,141.069 176.5,142.5C 176.5,143.833 176.5,145.167 176.5,146.5C 176.5,147.167 176.5,147.833 176.5,148.5C 176.351,149.552 176.517,150.552 177,151.5C 177.77,150.402 178.603,150.402 179.5,151.5C 180.167,151.5 180.833,151.5 181.5,151.5C 182.833,151.5 184.167,151.5 185.5,151.5C 187.423,147.971 188.089,143.971 187.5,139.5C 189.131,143.232 190.131,147.232 190.5,151.5C 192.179,151.715 193.179,151.048 193.5,149.5C 195.199,149.527 196.533,150.194 197.5,151.5C 199.176,150.817 199.843,149.483 199.5,147.5C 205.167,147.5 210.833,147.5 216.5,147.5C 216.34,152.079 217.007,152.412 218.5,148.5C 219.167,148.5 219.5,148.833 219.5,149.5C 219.328,150.492 219.662,151.158 220.5,151.5C 222.234,152.562 223.901,152.562 225.5,151.5C 226.791,151.737 227.791,151.404 228.5,150.5C 234.761,151.793 241.261,152.46 248,152.5C 254.739,152.46 261.239,151.793 267.5,150.5C 268.209,151.404 269.209,151.737 270.5,151.5C 272.719,152.88 274.719,152.546 276.5,150.5C 276.376,149.893 276.043,149.56 275.5,149.5C 275.5,149.167 275.5,148.833 275.5,148.5C 275.167,147.5 274.5,146.833 273.5,146.5C 273.263,145.209 273.596,144.209 274.5,143.5C 275.222,143.918 275.722,144.584 276,145.5C 276.789,141.909 276.622,138.409 275.5,135C 277.291,132.894 277.958,130.394 277.5,127.5C 266.98,126.245 266.98,125.578 277.5,125.5C 276.522,120.059 273.189,118.059 267.5,119.5C 267.5,118.167 267.5,116.833 267.5,115.5C 266.5,115.5 265.5,115.5 264.5,115.5C 264.715,113.821 264.048,112.821 262.5,112.5C 261.375,111.986 260.209,111.653 259,111.5C 258.235,109.934 258.402,108.601 259.5,107.5C 259.97,108.693 260.97,109.36 262.5,109.5C 278.107,111.485 293.773,111.985 309.5,111C 313.864,109.918 318.197,109.751 322.5,110.5C 319.658,111.004 318.325,112.671 318.5,115.5C 317.5,115.5 316.5,115.5 315.5,115.5C 315.5,116.833 315.5,118.167 315.5,119.5C 312.432,119.547 309.432,120.047 306.5,121C 305.62,122.356 305.286,123.856 305.5,125.5C 308.187,125.336 310.854,125.503 313.5,126C 312.584,126.278 311.918,126.778 311.5,127.5C 309.167,127.5 306.833,127.5 304.5,127.5C 304.198,130.059 304.532,132.393 305.5,134.5C 305.335,137.518 305.502,140.518 306,143.5C 306.739,144.574 307.739,145.241 309,145.5C 310.468,144.372 312.135,143.706 314,143.5C 317.269,144.471 318.102,146.471 316.5,149.5C 316.833,150.5 317.5,151.167 318.5,151.5C 319.491,147.555 319.824,143.555 319.5,139.5C 326.833,139.5 334.167,139.5 341.5,139.5C 341.334,143.514 341.501,147.514 342,151.5C 342.499,146.845 342.666,142.179 342.5,137.5C 343.163,135.958 343.83,134.291 344.5,132.5C 345.251,133.376 345.751,134.376 346,135.5C 346.672,129.771 347.672,129.437 349,134.5C 349.672,128.771 350.672,128.437 352,133.5C 352.002,130.949 352.836,128.949 354.5,127.5C 354.238,128.978 354.571,130.311 355.5,131.5C 356.452,129.955 356.785,128.288 356.5,126.5C 357.985,131.747 358.985,131.413 359.5,125.5C 359.5,124.833 359.833,124.5 360.5,124.5C 360.238,125.978 360.571,127.311 361.5,128.5C 362.452,126.955 362.785,125.288 362.5,123.5C 364.326,128.907 365.326,128.574 365.5,122.5C 367.651,126.281 368.651,125.614 368.5,120.5C 368.833,120.5 369.167,120.5 369.5,120.5C 369.517,122.565 369.85,124.565 370.5,126.5C 370.5,127.167 370.5,127.833 370.5,128.5C 370.763,132.6 370.43,136.6 369.5,140.5C 362.171,143.831 354.838,147.164 347.5,150.5C 346.711,150.783 346.044,151.283 345.5,152C 360.163,152.5 374.83,152.667 389.5,152.5C 389.5,154.167 389.5,155.833 389.5,157.5C 259.5,157.5 129.5,157.5 -0.5,157.5C -0.5,155.5 -0.5,153.5 -0.5,151.5C 0.833333,151.5 2.16667,151.5 3.5,151.5C 3.66648,141.494 3.49981,131.494 3,121.5C -0.2998,119.443 -0.133134,118.443 3.5,118.5C 3.5,116.833 3.5,115.167 3.5,113.5C 18.5,113.5 33.5,113.5 48.5,113.5C 48.2155,115.415 48.5489,117.081 49.5,118.5C 50.8195,106.931 50.8195,95.2647 49.5,83.5C 51.4331,82.3583 52.9331,80.6917 54,78.5C 54.6924,79.0253 55.1924,79.6919 55.5,80.5C 60.4278,80.9265 65.0945,82.0931 69.5,84C 68.5201,91.0787 68.1868,98.2454 68.5,105.5C 70.5,105.5 72.5,105.5 74.5,105.5C 75.733,99.8189 75.733,94.1523 74.5,88.5C 75.8333,87.1667 77.1667,87.1667 78.5,88.5C 77.3576,90.1168 76.691,91.9501 76.5,94C 77.0694,97.8173 77.4027,101.651 77.5,105.5 Z"/></g>
<g><path style="opacity:1" fill="#45a4db" d="M 215.5,89.5 C 215.5,90.1667 215.167,90.5 214.5,90.5C 210.486,90.3345 206.486,90.5012 202.5,91C 207.23,90.9658 207.73,92.4658 204,95.5C 203.235,97.0657 203.402,98.3991 204.5,99.5C 205.272,100.694 206.272,101.694 207.5,102.5C 206.198,104.028 204.531,105.028 202.5,105.5C 201.833,105.5 201.167,105.5 200.5,105.5C 200.253,98.1124 200.753,90.779 202,83.5C 202.333,84.1667 202.667,84.8333 203,85.5C 203.608,83.8455 204.108,82.1789 204.5,80.5C 206.215,80.4023 208.049,80.4023 210,80.5C 210.5,80 211,79.5 211.5,79C 209.1,78.8142 206.766,78.3142 204.5,77.5C 205.127,76.5832 205.461,75.5832 205.5,74.5C 206.304,72.8113 207.304,71.1446 208.5,69.5C 211.465,74.4126 213.299,79.7459 214,85.5C 214.333,84.8333 214.667,84.1667 215,83.5C 215.495,85.4727 215.662,87.4727 215.5,89.5 Z"/></g>
<g><path style="opacity:1" fill="#92caea" d="M 242.5,75.5 C 242.369,76.3764 242.702,77.0431 243.5,77.5C 244.417,76.8728 245.417,76.5394 246.5,76.5C 246.864,78.4706 247.197,80.4706 247.5,82.5C 247.145,83.5223 246.478,84.189 245.5,84.5C 242.269,83.9022 241.936,82.7356 244.5,81C 243.648,79.2716 242.648,79.105 241.5,80.5C 241.216,78.5853 241.549,76.9187 242.5,75.5 Z"/></g>
<g><path style="opacity:1" fill="#68b2e1" d="M 121.5,77.5 C 121.286,79.1439 121.62,80.6439 122.5,82C 125.696,82.8045 128.696,82.6378 131.5,81.5C 132.5,81.5 133.5,81.5 134.5,81.5C 131.742,82.9665 132.075,83.6332 135.5,83.5C 135.216,81.5853 135.549,79.9187 136.5,78.5C 135.68,82.1578 137.013,84.4912 140.5,85.5C 139.885,88.0393 139.218,90.5393 138.5,93C 138.719,96.6823 138.719,100.516 138.5,104.5C 135.956,104.104 133.789,104.771 132,106.5C 130.644,105.62 129.144,105.286 127.5,105.5C 128.263,104.732 129.263,104.232 130.5,104C 125.536,103.088 120.536,102.588 115.5,102.5C 115.84,104.548 115.507,105.548 114.5,105.5C 113.454,103.118 113.454,100.785 114.5,98.5C 116.117,99.038 117.784,99.3713 119.5,99.5C 119.5,97.8333 119.5,96.1667 119.5,94.5C 122.059,94.8016 124.393,94.4682 126.5,93.5C 129.408,94.5691 132.408,94.7358 135.5,94C 132.964,93.8138 130.631,93.3138 128.5,92.5C 128.369,91.7611 128.536,91.0944 129,90.5C 131.041,91.4231 133.208,91.7564 135.5,91.5C 135.141,89.2341 135.808,87.4007 137.5,86C 134.653,85.0561 132.153,85.5561 130,87.5C 128.644,86.6198 127.144,86.2865 125.5,86.5C 125.5,87.8333 125.5,89.1667 125.5,90.5C 123.208,90.7564 121.041,90.4231 119,89.5C 118.29,90.9733 117.124,91.6399 115.5,91.5C 115.963,88.5176 116.296,85.5176 116.5,82.5C 117.833,82.5 119.167,82.5 120.5,82.5C 120.216,80.5853 120.549,78.9187 121.5,77.5 Z"/></g>
<g><path style="opacity:1" fill="#e1f1f9" d="M 134.5,81.5 C 133.5,81.5 132.5,81.5 131.5,81.5C 131.5,80.5 131.5,79.5 131.5,78.5C 132.5,78.5 133.5,78.5 134.5,78.5C 134.5,79.5 134.5,80.5 134.5,81.5 Z"/></g>
<g><path style="opacity:1" fill="#96ceec" d="M 49.5,83.5 C 50.8195,95.2647 50.8195,106.931 49.5,118.5C 49.4446,106.586 49.4446,94.9192 49.5,83.5 Z"/></g>
<g><path style="opacity:1" fill="#72bce5" d="M 82.5,84.5 C 83.4916,91.6476 83.825,98.9809 83.5,106.5C 81.2646,106.795 79.2646,106.461 77.5,105.5C 79.1667,105.5 80.8333,105.5 82.5,105.5C 82.5,98.5 82.5,91.5 82.5,84.5 Z"/></g>
<g><path style="opacity:1" fill="#5caedf" d="M 245.5,84.5 C 246.833,86.1667 246.833,87.8333 245.5,89.5C 244.417,89.5394 243.417,89.8728 242.5,90.5C 241.702,90.0431 241.369,89.3764 241.5,88.5C 241.5,85.8333 241.5,83.1667 241.5,80.5C 242.648,79.105 243.648,79.2716 244.5,81C 241.936,82.7356 242.269,83.9022 245.5,84.5 Z"/></g>
<g><path style="opacity:1" fill="#2c97d6" d="M 349.5,90.5 C 345.366,91.4849 341.032,91.8182 336.5,91.5C 336.5,90.1667 336.5,88.8333 336.5,87.5C 337.5,87.5 338.5,87.5 339.5,87.5C 338.789,83.7193 339.955,80.7193 343,78.5C 345.907,80.7334 347.074,83.7334 346.5,87.5C 347.5,87.5 348.5,87.5 349.5,87.5C 349.5,88.5 349.5,89.5 349.5,90.5 Z"/></g>
<g><path style="opacity:1" fill="#b6dcf1" d="M 206.5,87.5 C 208.604,87.2011 210.604,87.5344 212.5,88.5C 211.5,88.8333 210.5,89.1667 209.5,89.5C 207.97,89.3601 206.97,88.6935 206.5,87.5 Z"/></g>
<g><path style="opacity:1" fill="#b7dcf1" d="M 128.5,92.5 C 125.813,92.6641 123.146,92.4974 120.5,92C 124.405,91.8432 126.071,91.3432 125.5,90.5C 125.5,89.1667 125.5,87.8333 125.5,86.5C 127.144,86.2865 128.644,86.6198 130,87.5C 132.153,85.5561 134.653,85.0561 137.5,86C 135.808,87.4007 135.141,89.2341 135.5,91.5C 133.208,91.7564 131.041,91.4231 129,90.5C 128.536,91.0944 128.369,91.7611 128.5,92.5 Z"/></g>
<g><path style="opacity:1" fill="#8ec9ea" d="M 241.5,88.5 C 241.369,89.3764 241.702,90.0431 242.5,90.5C 243.417,89.8728 244.417,89.5394 245.5,89.5C 247.06,91.1294 246.727,92.296 244.5,93C 245.997,96.1717 244.997,98.005 241.5,98.5C 241.178,96.2776 241.845,94.4443 243.5,93C 242.423,92.5304 241.423,92.6971 240.5,93.5C 240.216,91.5853 240.549,89.9187 241.5,88.5 Z"/></g>
<g><path style="opacity:1" fill="#83c2e7" d="M 254.5,81.5 C 255.427,86.7578 256.094,92.0912 256.5,97.5C 253.648,99.3753 251.648,98.7086 250.5,95.5C 251.106,92.689 250.772,89.8556 249.5,87C 249.905,86.0546 250.572,85.3879 251.5,85C 250.643,84.3109 249.977,83.4776 249.5,82.5C 250.535,80.8716 250.535,79.205 249.5,77.5C 252.8,76.1335 253.8,77.1335 252.5,80.5C 252.957,81.2975 253.624,81.6309 254.5,81.5 Z"/></g>
<g><path style="opacity:1" fill="#128cd2" d="M 351.5,91.5 C 353.772,92.723 354.939,94.723 355,97.5C 356.11,92.5206 357.11,92.8539 358,98.5C 358.914,94.8149 359.581,95.1482 360,99.5C 361.377,95.7351 362.377,96.0684 363,100.5C 363.232,99.2625 363.732,98.2625 364.5,97.5C 364.349,102.614 365.349,103.281 367.5,99.5C 367.343,100.873 367.51,102.207 368,103.5C 369.11,98.5206 370.11,98.8539 371,104.5C 371.232,103.263 371.732,102.263 372.5,101.5C 373.167,104.833 373.833,108.167 374.5,111.5C 373.167,111.5 371.833,111.5 370.5,111.5C 370.795,113.735 370.461,115.735 369.5,117.5C 363.046,114.773 356.712,111.773 350.5,108.5C 350.178,102.642 350.511,96.9753 351.5,91.5 Z"/></g>
<g><path style="opacity:1" fill="#2b98d7" d="M 125.5,90.5 C 126.071,91.3432 124.405,91.8432 120.5,92C 123.146,92.4974 125.813,92.6641 128.5,92.5C 130.631,93.3138 132.964,93.8138 135.5,94C 132.408,94.7358 129.408,94.5691 126.5,93.5C 122.511,93.8836 118.845,93.217 115.5,91.5C 117.124,91.6399 118.29,90.9733 119,89.5C 121.041,90.4231 123.208,90.7564 125.5,90.5 Z"/></g>
<g><path style="opacity:1" fill="#138ed3" d="M 336.5,92.5 C 337.943,93.3351 338.943,94.6684 339.5,96.5C 341.715,91.2901 342.382,91.2901 341.5,96.5C 342.5,96.5 343.5,96.5 344.5,96.5C 343.618,91.2901 344.285,91.2901 346.5,96.5C 347.731,95.3493 347.731,94.1827 346.5,93C 347.448,92.5172 348.448,92.3505 349.5,92.5C 349.5,94.1667 349.5,95.8333 349.5,97.5C 345.167,97.5 340.833,97.5 336.5,97.5C 336.5,95.8333 336.5,94.1667 336.5,92.5 Z"/></g>
<g><path style="opacity:1" fill="#a8d5ee" d="M 214.5,90.5 C 212.842,91.1814 211.175,92.0147 209.5,93C 211.426,93.4224 212.426,94.5891 212.5,96.5C 210.857,96.4802 209.524,97.1468 208.5,98.5C 207.476,97.1468 206.143,96.4802 204.5,96.5C 204.5,97.5 204.5,98.5 204.5,99.5C 203.402,98.3991 203.235,97.0657 204,95.5C 207.73,92.4658 207.23,90.9658 202.5,91C 206.486,90.5012 210.486,90.3345 214.5,90.5 Z"/></g>
<g><path style="opacity:1" fill="#a3d3ee" d="M 349.5,90.5 C 350.492,90.3284 351.158,90.6618 351.5,91.5C 350.511,96.9753 350.178,102.642 350.5,108.5C 350.167,108.5 349.833,108.5 349.5,108.5C 349.5,105.167 349.5,101.833 349.5,98.5C 345.167,98.5 340.833,98.5 336.5,98.5C 336.5,98.1667 336.5,97.8333 336.5,97.5C 340.833,97.5 345.167,97.5 349.5,97.5C 349.5,95.8333 349.5,94.1667 349.5,92.5C 348.448,92.3505 347.448,92.5172 346.5,93C 347.731,94.1827 347.731,95.3493 346.5,96.5C 344.285,91.2901 343.618,91.2901 344.5,96.5C 343.5,96.5 342.5,96.5 341.5,96.5C 342.382,91.2901 341.715,91.2901 339.5,96.5C 338.943,94.6684 337.943,93.3351 336.5,92.5C 336.5,92.1667 336.5,91.8333 336.5,91.5C 341.032,91.8182 345.366,91.4849 349.5,90.5 Z"/></g>
<g><path style="opacity:1" fill="#88c4e8" d="M 115.5,91.5 C 118.845,93.217 122.511,93.8836 126.5,93.5C 124.393,94.4682 122.059,94.8016 119.5,94.5C 119.5,96.1667 119.5,97.8333 119.5,99.5C 117.784,99.3713 116.117,99.038 114.5,98.5C 114.825,95.8082 115.158,93.4748 115.5,91.5 Z"/></g>
<g><path style="opacity:1" fill="#c1e1f3" d="M 124.5,100.5 C 124.5,98.8333 124.5,97.1667 124.5,95.5C 126.936,95.317 129.103,95.9837 131,97.5C 132.016,96.3659 132.683,96.6992 133,98.5C 133.974,96.1224 134.641,96.4557 135,99.5C 135.649,96.0626 136.149,95.896 136.5,99C 135.785,101.781 133.952,102.948 131,102.5C 129.833,102.333 128.667,102.167 127.5,102C 129.167,101.667 130.833,101.333 132.5,101C 130.598,100.801 129.098,99.9675 128,98.5C 127.026,100.878 126.359,100.544 126,97.5C 125.768,98.7375 125.268,99.7375 124.5,100.5 Z"/></g>
<g><path style="opacity:1" fill="#6ab9e3" d="M 215.5,89.5 C 216.488,94.6405 216.821,99.9738 216.5,105.5C 211.833,105.5 207.167,105.5 202.5,105.5C 204.531,105.028 206.198,104.028 207.5,102.5C 211.009,102.192 212.676,100.192 212.5,96.5C 212.426,94.5891 211.426,93.4224 209.5,93C 211.175,92.0147 212.842,91.1814 214.5,90.5C 215.167,90.5 215.5,90.1667 215.5,89.5 Z"/></g>
<g><path style="opacity:1" fill="#daedf7" d="M 212.5,96.5 C 212.676,100.192 211.009,102.192 207.5,102.5C 206.272,101.694 205.272,100.694 204.5,99.5C 204.5,98.5 204.5,97.5 204.5,96.5C 206.143,96.4802 207.476,97.1468 208.5,98.5C 209.524,97.1468 210.857,96.4802 212.5,96.5 Z"/></g>
<g><path style="opacity:1" fill="#0e8dd2" d="M 336.5,98.5 C 340.833,98.5 345.167,98.5 349.5,98.5C 349.5,101.833 349.5,105.167 349.5,108.5C 346.052,108.892 342.886,108.225 340,106.5C 338.278,106.611 338.112,107.111 339.5,108C 338.552,108.483 337.552,108.649 336.5,108.5C 336.5,105.167 336.5,101.833 336.5,98.5 Z"/></g>
<g><path style="opacity:1" fill="#6ebbe4" d="M 364.5,97.5 C 365.71,97.9321 366.71,98.5987 367.5,99.5C 365.349,103.281 364.349,102.614 364.5,97.5 Z"/></g>
<g><path style="opacity:1" fill="#b7dcf1" d="M 124.5,100.5 C 118.915,101.459 118.248,101.459 122.5,100.5C 122.34,98.8008 122.506,97.1341 123,95.5C 123.198,97.3817 123.698,99.0484 124.5,100.5 Z"/></g>
<g><path style="opacity:1" fill="#89c7e9" d="M 240.5,97.5 C 239.791,98.404 238.791,98.7373 237.5,98.5C 237.926,100.139 237.926,101.472 237.5,102.5C 236.549,101.081 236.216,99.4147 236.5,97.5C 237.833,97.5 239.167,97.5 240.5,97.5 Z"/></g>
<g><path style="opacity:1" fill="#6fbbe4" d="M 341.5,101.5 C 343.288,101.215 344.955,101.548 346.5,102.5C 345.667,102.833 344.833,103.167 344,103.5C 342.624,103.316 341.791,102.649 341.5,101.5 Z"/></g>
<g><path style="opacity:1" fill="#97cceb" d="M 127.5,105.5 C 126.167,105.5 124.833,105.5 123.5,105.5C 123.5,106.833 123.5,108.167 123.5,109.5C 121.255,108.172 120.922,106.339 122.5,104C 120.527,103.505 118.527,103.338 116.5,103.5C 116.785,105.288 116.452,106.955 115.5,108.5C 114.817,108.137 114.15,107.804 113.5,107.5C 113.328,106.508 113.662,105.842 114.5,105.5C 115.507,105.548 115.84,104.548 115.5,102.5C 120.536,102.588 125.536,103.088 130.5,104C 129.263,104.232 128.263,104.732 127.5,105.5 Z"/></g>
<g><path style="opacity:1" fill="#3da1da" d="M 385.5,112.5 C 385.052,114.465 384.052,114.798 382.5,113.5C 384.223,111.132 384.89,108.466 384.5,105.5C 383.5,105.5 382.5,105.5 381.5,105.5C 380.167,105.5 379.5,106.167 379.5,107.5C 378.533,106.194 377.199,105.527 375.5,105.5C 374.167,104.833 374.167,104.167 375.5,103.5C 379.522,99.5329 383.189,100.033 386.5,105C 385.565,107.381 385.232,109.881 385.5,112.5 Z"/></g>
<g><path style="opacity:1" fill="#6ab9e3" d="M 98.5,106.5 C 94.5,106.5 90.5,106.5 86.5,106.5C 86.5,109.5 86.5,112.5 86.5,115.5C 85.5206,112.375 85.1872,109.042 85.5,105.5C 90.0323,105.182 94.3656,105.515 98.5,106.5 Z"/></g>
<g><path style="opacity:1" fill="#e4f0f9" d="M 98.5,106.5 C 98.5,109.5 98.5,112.5 98.5,115.5C 94.5,115.5 90.5,115.5 86.5,115.5C 86.5,112.5 86.5,109.5 86.5,106.5C 90.5,106.5 94.5,106.5 98.5,106.5 Z"/></g>
<g><path style="opacity:1" fill="#058ad1" d="M 375.5,105.5 C 377.199,105.527 378.533,106.194 379.5,107.5C 380.833,107.5 381.5,106.833 381.5,105.5C 382.5,105.5 383.5,105.5 384.5,105.5C 384.89,108.466 384.223,111.132 382.5,113.5C 384.052,114.798 385.052,114.465 385.5,112.5C 386.5,112.5 387.5,112.5 388.5,112.5C 388.5,113.833 388.5,115.167 388.5,116.5C 384.244,117.014 380.411,116.014 377,113.5C 375.189,114.424 375.355,115.257 377.5,116C 375.527,116.495 373.527,116.662 371.5,116.5C 371.5,115.167 371.5,113.833 371.5,112.5C 372.833,112.5 374.167,112.5 375.5,112.5C 375.5,110.167 375.5,107.833 375.5,105.5 Z"/></g>
<g><path style="opacity:1" fill="#c1e2f4" d="M 381.5,105.5 C 381.5,106.833 380.833,107.5 379.5,107.5C 379.5,106.167 380.167,105.5 381.5,105.5 Z"/></g>
<g><path style="opacity:1" fill="#6dbae4" d="M 215.5,106.5 C 215.5,113.167 215.5,119.833 215.5,126.5C 214.5,126.5 213.5,126.5 212.5,126.5C 211.833,113.167 211.167,113.167 210.5,126.5C 209.5,126.5 208.5,126.5 207.5,126.5C 206.833,113.167 206.167,113.167 205.5,126.5C 204.5,126.5 203.5,126.5 202.5,126.5C 202.102,119.797 201.769,113.297 201.5,107C 206.155,106.501 210.821,106.334 215.5,106.5 Z"/></g>
<g><path style="opacity:1" fill="#a0d3ee" d="M 210.5,107.5 C 211.748,108.334 212.415,109.667 212.5,111.5C 212.167,112.833 211.833,114.167 211.5,115.5C 210.52,112.914 210.187,110.247 210.5,107.5 Z"/></g>
<g><path style="opacity:1" fill="#1c8fd3" d="M 337.5,112.5 C 333.167,112.5 328.833,112.5 324.5,112.5C 323.262,112.19 323.262,111.69 324.5,111C 326.641,109.692 328.641,108.192 330.5,106.5C 333.464,107.808 335.797,109.808 337.5,112.5 Z"/></g>
<g><path style="opacity:1" fill="#b5dbf1" d="M 60.5,107.5 C 61.7251,108.152 62.3917,109.319 62.5,111C 62.1667,112.167 61.8333,113.333 61.5,114.5C 60.5258,112.257 60.1924,109.924 60.5,107.5 Z"/></g>
<g><path style="opacity:1" fill="#a0d2ed" d="M 74.5,108.5 C 72.8333,108.5 71.1667,108.5 69.5,108.5C 69.5,110.5 69.5,112.5 69.5,114.5C 70.5,114.5 71.5,114.5 72.5,114.5C 71.4324,115.434 70.099,115.768 68.5,115.5C 68.5,112.833 68.5,110.167 68.5,107.5C 70.7354,107.205 72.7354,107.539 74.5,108.5 Z"/></g>
<g><path style="opacity:1" fill="#fdfefe" d="M 74.5,108.5 C 74.7475,110.858 74.0808,112.858 72.5,114.5C 71.5,114.5 70.5,114.5 69.5,114.5C 69.5,112.5 69.5,110.5 69.5,108.5C 71.1667,108.5 72.8333,108.5 74.5,108.5 Z"/></g>
<g><path style="opacity:1" fill="#fdfefe" d="M 80.5,114.5 C 79.5987,113.71 78.9321,112.71 78.5,111.5C 78.5,110.5 78.5,109.5 78.5,108.5C 79.8333,108.5 81.1667,108.5 82.5,108.5C 82.9746,111.082 82.3079,113.082 80.5,114.5 Z"/></g>
<g><path style="opacity:1" fill="#84c5e8" d="M 80.5,114.5 C 82.3079,113.082 82.9746,111.082 82.5,108.5C 81.1667,108.5 79.8333,108.5 78.5,108.5C 78.5,109.5 78.5,110.5 78.5,111.5C 77.5655,110.432 77.2322,109.099 77.5,107.5C 79.5,107.5 81.5,107.5 83.5,107.5C 83.5,110.167 83.5,112.833 83.5,115.5C 82.209,115.737 81.209,115.404 80.5,114.5 Z"/></g>
<g><path style="opacity:1" fill="#68b1e1" d="M 93.5,107.5 C 94.7251,108.152 95.3917,109.319 95.5,111C 95.1667,112.167 94.8333,113.333 94.5,114.5C 93.5258,112.257 93.1924,109.924 93.5,107.5 Z"/></g>
<g><path style="opacity:1" fill="#a2d4ee" d="M 203.5,107.5 C 204.833,107.5 206.167,107.5 207.5,107.5C 207.5,110.167 207.5,112.833 207.5,115.5C 206.167,115.5 204.833,115.5 203.5,115.5C 203.5,112.833 203.5,110.167 203.5,107.5 Z"/></g>
<g><path style="opacity:1" fill="#77bfe6" d="M 349.5,108.5 C 345.167,109.833 340.833,109.833 336.5,108.5C 337.552,108.649 338.552,108.483 339.5,108C 338.112,107.111 338.278,106.611 340,106.5C 342.886,108.225 346.052,108.892 349.5,108.5 Z"/></g>
<g><path style="opacity:1" fill="#b6dcf1" d="M 138.5,104.5 C 138.5,105.167 138.167,105.5 137.5,105.5C 135.744,106.552 135.077,108.219 135.5,110.5C 130.379,110.826 127.046,110.826 125.5,110.5C 125.633,107.075 124.967,106.742 123.5,109.5C 123.5,108.167 123.5,106.833 123.5,105.5C 124.833,105.5 126.167,105.5 127.5,105.5C 129.144,105.286 130.644,105.62 132,106.5C 133.789,104.771 135.956,104.104 138.5,104.5 Z"/></g>
<g><path style="opacity:1" fill="#f6fafd" d="M 253.5,122.5 C 250.663,124.402 247.329,125.069 243.5,124.5C 244.167,119.167 244.833,113.833 245.5,108.5C 247.5,108.5 249.5,108.5 251.5,108.5C 251.705,113.272 252.372,117.938 253.5,122.5 Z"/></g>
<g><path style="opacity:1" fill="#45a2db" d="M 123.5,109.5 C 124.967,106.742 125.633,107.075 125.5,110.5C 127.046,110.826 130.379,110.826 135.5,110.5C 135.077,108.219 135.744,106.552 137.5,105.5C 137.043,108.309 137.043,110.976 137.5,113.5C 134.833,113.5 132.167,113.5 129.5,113.5C 124.367,112.335 119.034,111.668 113.5,111.5C 112.646,110.368 112.646,109.035 113.5,107.5C 114.15,107.804 114.817,108.137 115.5,108.5C 116.452,106.955 116.785,105.288 116.5,103.5C 118.527,103.338 120.527,103.505 122.5,104C 120.922,106.339 121.255,108.172 123.5,109.5 Z"/></g>
<g><path style="opacity:1" fill="#c4e2f3" d="M 117.5,104.5 C 118.302,105.952 118.802,107.618 119,109.5C 119.981,103.136 120.481,103.469 120.5,110.5C 118.801,110.66 117.134,110.494 115.5,110C 117.192,108.599 117.859,106.766 117.5,104.5 Z"/></g>
<g><path style="opacity:1" fill="#8fc7e9" d="M 237.5,106.5 C 239.621,106.325 241.621,106.659 243.5,107.5C 244.097,107.735 244.43,108.235 244.5,109C 244.022,110.303 243.355,111.469 242.5,112.5C 238.828,113.466 238.828,114.966 242.5,117C 241.022,119.039 239.022,119.872 236.5,119.5C 236.433,118.041 236.766,116.708 237.5,115.5C 239.129,113.804 238.796,112.804 236.5,112.5C 236.833,110.5 237.167,108.5 237.5,106.5 Z"/></g>
<g><path style="opacity:1" fill="#f4fafd" d="M 262.5,112.5 C 264.048,112.821 264.715,113.821 264.5,115.5C 265.5,115.5 266.5,115.5 267.5,115.5C 267.5,116.833 267.5,118.167 267.5,119.5C 273.189,118.059 276.522,120.059 277.5,125.5C 266.98,125.578 266.98,126.245 277.5,127.5C 277.958,130.394 277.291,132.894 275.5,135C 276.622,138.409 276.789,141.909 276,145.5C 275.722,144.584 275.222,143.918 274.5,143.5C 272.934,139.272 270.934,135.272 268.5,131.5C 267.315,128.408 265.981,125.408 264.5,122.5C 262.691,119.161 262.024,115.828 262.5,112.5 Z"/></g>
<g><path style="opacity:1" fill="#ebf6fb" d="M 236.5,112.5 C 238.796,112.804 239.129,113.804 237.5,115.5C 236.596,114.791 236.263,113.791 236.5,112.5 Z"/></g>
<g><path style="opacity:1" fill="#43a1da" d="M 136.5,114.5 C 136.795,116.735 136.461,118.735 135.5,120.5C 134.698,119.048 134.198,117.382 134,115.5C 133.667,116.5 133.333,117.5 133,118.5C 132.682,116.939 131.849,115.772 130.5,115C 132.473,114.505 134.473,114.338 136.5,114.5 Z"/></g>
<g><path style="opacity:1" fill="#bbdef2" d="M 129.5,113.5 C 132.167,113.5 134.833,113.5 137.5,113.5C 137.5,114.167 137.167,114.5 136.5,114.5C 134.473,114.338 132.473,114.505 130.5,115C 131.849,115.772 132.682,116.939 133,118.5C 133.333,117.5 133.667,116.5 134,115.5C 134.198,117.382 134.698,119.048 135.5,120.5C 135.5,120.833 135.5,121.167 135.5,121.5C 133.167,121.5 130.833,121.5 128.5,121.5C 129.609,120.71 130.942,120.21 132.5,120C 130.598,119.801 129.098,118.967 128,117.5C 127.026,119.878 126.359,119.544 126,116.5C 125.667,117.5 125.333,118.5 125,119.5C 124.506,117.866 124.34,116.199 124.5,114.5C 126.144,114.286 127.644,114.62 129,115.5C 129.464,114.906 129.631,114.239 129.5,113.5 Z"/></g>
<g><path style="opacity:1" fill="#5dafe0" d="M 243.5,107.5 C 246.962,106.518 250.629,106.185 254.5,106.5C 252.286,108.239 252.286,110.239 254.5,112.5C 256.716,112.275 258.383,113.108 259.5,115C 255.914,114.422 254.58,115.922 255.5,119.5C 254.596,120.209 254.263,121.209 254.5,122.5C 254.167,122.5 253.833,122.5 253.5,122.5C 252.372,117.938 251.705,113.272 251.5,108.5C 249.5,108.5 247.5,108.5 245.5,108.5C 244.833,113.833 244.167,119.167 243.5,124.5C 242.5,124.5 241.5,124.5 240.5,124.5C 239.489,121.77 237.822,121.103 235.5,122.5C 236.11,121.609 236.443,120.609 236.5,119.5C 239.022,119.872 241.022,119.039 242.5,117C 238.828,114.966 238.828,113.466 242.5,112.5C 243.355,111.469 244.022,110.303 244.5,109C 244.43,108.235 244.097,107.735 243.5,107.5 Z"/></g>
<g><path style="opacity:1" fill="#f8fbfd" d="M 254.5,112.5 C 255.895,113.648 255.728,114.648 254,115.5C 253.26,114.251 253.427,113.251 254.5,112.5 Z"/></g>
<g><path style="opacity:1" fill="#f3f9fc" d="M 242.5,112.5 C 243.573,113.251 243.74,114.251 243,115.5C 241.272,114.648 241.105,113.648 242.5,112.5 Z"/></g>
<g><path style="opacity:1" fill="#93caea" d="M 95.5,116.5 C 97.337,116.639 97.6704,117.306 96.5,118.5C 95.7025,118.043 95.3691,117.376 95.5,116.5 Z"/></g>
<g><path style="opacity:1" fill="#89c4e8" d="M 259.5,98.5 C 260.112,101.304 260.112,104.304 259.5,107.5C 258.402,108.601 258.235,109.934 259,111.5C 260.209,111.653 261.375,111.986 262.5,112.5C 262.024,115.828 262.691,119.161 264.5,122.5C 263.833,122.833 263.167,123.167 262.5,123.5C 260.045,121.862 258.045,122.195 256.5,124.5C 255.833,124.5 255.5,124.167 255.5,123.5C 256.833,122.167 256.833,120.833 255.5,119.5C 254.58,115.922 255.914,114.422 259.5,115C 258.383,113.108 256.716,112.275 254.5,112.5C 252.286,110.239 252.286,108.239 254.5,106.5C 255.833,106.5 257.167,106.5 258.5,106.5C 258.579,105.07 258.246,103.736 257.5,102.5C 258.853,101.476 259.52,100.143 259.5,98.5 Z"/></g>
<g><path style="opacity:1" fill="#73bce5" d="M 372.5,101.5 C 373.71,101.932 374.71,102.599 375.5,103.5C 374.167,104.167 374.167,104.833 375.5,105.5C 375.5,107.833 375.5,110.167 375.5,112.5C 374.167,112.5 372.833,112.5 371.5,112.5C 371.5,113.833 371.5,115.167 371.5,116.5C 373.527,116.662 375.527,116.495 377.5,116C 375.355,115.257 375.189,114.424 377,113.5C 380.411,116.014 384.244,117.014 388.5,116.5C 388.5,115.167 388.5,113.833 388.5,112.5C 388.833,112.5 389.167,112.5 389.5,112.5C 389.5,117.167 389.5,121.833 389.5,126.5C 389.167,126.5 388.833,126.5 388.5,126.5C 388.5,123.833 388.5,121.167 388.5,118.5C 382.833,118.5 377.167,118.5 371.5,118.5C 371.5,121.167 371.5,123.833 371.5,126.5C 371.167,126.5 370.833,126.5 370.5,126.5C 369.85,124.565 369.517,122.565 369.5,120.5C 370.833,119.5 370.833,118.5 369.5,117.5C 370.461,115.735 370.795,113.735 370.5,111.5C 371.833,111.5 373.167,111.5 374.5,111.5C 373.833,108.167 373.167,104.833 372.5,101.5 Z"/></g>
<g><path style="opacity:1" fill="#2792d5" d="M 388.5,126.5 C 382.833,126.5 377.167,126.5 371.5,126.5C 371.5,123.833 371.5,121.167 371.5,118.5C 377.167,118.5 382.833,118.5 388.5,118.5C 388.5,121.167 388.5,123.833 388.5,126.5 Z"/></g>
<g><path style="opacity:1" fill="#eff7fb" d="M 236.5,119.5 C 236.443,120.609 236.11,121.609 235.5,122.5C 234.761,122.631 234.094,122.464 233.5,122C 234.078,120.583 235.078,119.75 236.5,119.5 Z"/></g>
<g><path style="opacity:1" fill="#fbfdfe" d="M 241.5,119.5 C 243.033,123.613 242.367,124.113 239.5,121C 240.416,120.722 241.082,120.222 241.5,119.5 Z"/></g>
<g><path style="opacity:1" fill="#f4fafc" d="M 260.5,119.5 C 262.225,119.843 262.725,120.843 262,122.5C 259.842,121.95 259.342,120.95 260.5,119.5 Z"/></g>
<g><path style="opacity:1" fill="#f2f8fc" d="M 255.5,119.5 C 256.833,120.833 256.833,122.167 255.5,123.5C 254.833,123.5 254.5,123.167 254.5,122.5C 254.263,121.209 254.596,120.209 255.5,119.5 Z"/></g>
<g><path style="opacity:1" fill="#89c7e9" d="M 324.5,112.5 C 328.833,112.5 333.167,112.5 337.5,112.5C 337.5,115.167 337.5,117.833 337.5,120.5C 339.099,120.232 340.432,120.566 341.5,121.5C 334.167,121.5 326.833,121.5 319.5,121.5C 320.919,120.549 322.585,120.216 324.5,120.5C 324.5,117.833 324.5,115.167 324.5,112.5 Z"/></g>
<g><path style="opacity:1" fill="#068ad1" d="M 329.5,113.5 C 329.5,114.833 330.167,115.5 331.5,115.5C 332.779,114.032 334.446,113.365 336.5,113.5C 336.5,115.833 336.5,118.167 336.5,120.5C 332.833,120.5 329.167,120.5 325.5,120.5C 325.5,118.167 325.5,115.833 325.5,113.5C 326.833,113.5 328.167,113.5 329.5,113.5 Z"/></g>
<g><path style="opacity:1" fill="#fdfefe" d="M 329.5,113.5 C 330.833,113.5 331.5,114.167 331.5,115.5C 331.5,114.167 330.833,113.5 329.5,113.5 Z"/></g>
<g><path style="opacity:1" fill="#fefffe" d="M 374.5,120.5 C 375.586,120.62 376.253,121.287 376.5,122.5C 376.167,123.167 375.833,123.833 375.5,124.5C 374.571,123.311 374.238,121.978 374.5,120.5 Z"/></g>
<g><path style="opacity:1" fill="#f1f8fc" d="M 378.5,120.5 C 379.5,120.5 380.5,120.5 381.5,120.5C 381.5,121.833 381.5,123.167 381.5,124.5C 380.5,124.5 379.5,124.5 378.5,124.5C 378.5,123.167 378.5,121.833 378.5,120.5 Z"/></g>
<g><path style="opacity:1" fill="#edf6fb" d="M 383.5,120.5 C 384.5,120.5 385.5,120.5 386.5,120.5C 386.5,121.833 386.5,123.167 386.5,124.5C 385.5,124.5 384.5,124.5 383.5,124.5C 383.5,123.167 383.5,121.833 383.5,120.5 Z"/></g>
<g><path style="opacity:1" fill="#c4e2f4" d="M 49.5,120.5 C 50.1599,121.964 50.4932,123.631 50.5,125.5C 49.8259,134.155 49.3259,142.822 49,151.5C 48.1925,141.09 48.3592,130.757 49.5,120.5 Z"/></g>
<g><path style="opacity:1" fill="#f6fafd" d="M 280.5,121.5 C 283.5,121.5 286.5,121.5 289.5,121.5C 289.5,122.833 289.5,124.167 289.5,125.5C 286.5,125.5 283.5,125.5 280.5,125.5C 280.5,124.167 280.5,122.833 280.5,121.5 Z"/></g>
<g><path style="opacity:1" fill="#f5fafd" d="M 293.5,121.5 C 296.5,121.5 299.5,121.5 302.5,121.5C 302.5,122.833 302.5,124.167 302.5,125.5C 299.5,125.5 296.5,125.5 293.5,125.5C 293.5,124.167 293.5,122.833 293.5,121.5 Z"/></g>
<g><path style="opacity:1" fill="#1b8ed3" d="M 319.5,121.5 C 326.833,121.5 334.167,121.5 341.5,121.5C 341.5,123.167 341.5,124.833 341.5,126.5C 336.372,126.841 331.539,125.841 327,123.5C 326.5,123.667 326,123.833 325.5,124C 326.308,124.308 326.975,124.808 327.5,125.5C 324.914,126.48 322.247,126.813 319.5,126.5C 319.5,124.833 319.5,123.167 319.5,121.5 Z"/></g>
<g><path style="opacity:1" fill="#7ec3e7" d="M 368.5,120.5 C 368.651,125.614 367.651,126.281 365.5,122.5C 366.29,121.599 367.29,120.932 368.5,120.5 Z"/></g>
<g><path style="opacity:1" fill="#158dd2" d="M 236.5,112.5 C 236.263,113.791 236.596,114.791 237.5,115.5C 236.766,116.708 236.433,118.041 236.5,119.5C 235.078,119.75 234.078,120.583 233.5,122C 234.094,122.464 234.761,122.631 235.5,122.5C 235.389,123.117 235.056,123.617 234.5,124C 236.473,124.495 238.473,124.662 240.5,124.5C 241.5,124.5 242.5,124.5 243.5,124.5C 247.329,125.069 250.663,124.402 253.5,122.5C 253.833,122.5 254.167,122.5 254.5,122.5C 254.5,123.167 254.833,123.5 255.5,123.5C 255.5,124.167 255.833,124.5 256.5,124.5C 258.735,124.795 260.735,124.461 262.5,123.5C 263.167,123.167 263.833,122.833 264.5,122.5C 265.981,125.408 267.315,128.408 268.5,131.5C 268.167,131.5 267.833,131.5 267.5,131.5C 267.167,131.5 266.833,131.5 266.5,131.5C 266.389,130.883 266.056,130.383 265.5,130C 262.5,129.333 259.5,129.333 256.5,130C 257.066,130.995 257.733,131.828 258.5,132.5C 258.5,132.833 258.5,133.167 258.5,133.5C 257.833,133.5 257.167,133.5 256.5,133.5C 256.461,132.417 256.127,131.417 255.5,130.5C 250.869,129.338 246.202,129.172 241.5,130C 240.833,131 240.167,132 239.5,133C 244.834,132.231 250.168,132.397 255.5,133.5C 255.672,134.492 255.338,135.158 254.5,135.5C 252.799,134.266 250.799,133.599 248.5,133.5C 244.815,133.759 241.482,134.759 238.5,136.5C 237.596,135.791 237.263,134.791 237.5,133.5C 237.5,133.167 237.5,132.833 237.5,132.5C 238.267,131.828 238.934,130.995 239.5,130C 236.5,129.333 233.5,129.333 230.5,130C 229.944,130.383 229.611,130.883 229.5,131.5C 228.326,132.514 227.66,133.847 227.5,135.5C 227.167,136.167 226.833,136.833 226.5,137.5C 226.167,137.5 225.833,137.5 225.5,137.5C 225.5,136.833 225.5,136.167 225.5,135.5C 227.683,132.136 229.016,128.47 229.5,124.5C 230.5,124.5 231.5,124.5 232.5,124.5C 232.861,120.085 234.194,116.085 236.5,112.5 Z"/></g>
<g><path style="opacity:1" fill="#d9edf7" d="M 240.5,124.5 C 238.473,124.662 236.473,124.495 234.5,124C 235.056,123.617 235.389,123.117 235.5,122.5C 237.822,121.103 239.489,121.77 240.5,124.5 Z"/></g>
<g><path style="opacity:1" fill="#dbeef8" d="M 262.5,123.5 C 260.735,124.461 258.735,124.795 256.5,124.5C 258.045,122.195 260.045,121.862 262.5,123.5 Z"/></g>
<g><path style="opacity:1" fill="#7fc2e7" d="M 362.5,123.5 C 363.209,122.596 364.209,122.263 365.5,122.5C 365.326,128.574 364.326,128.907 362.5,123.5 Z"/></g>
<g><path style="opacity:1" fill="#1e8ed3" d="M 167.5,123.5 C 170.414,124.906 172.914,126.906 175,129.5C 175.72,131.112 175.554,132.612 174.5,134C 169.913,134.799 165.413,134.632 161,133.5C 160.333,132.167 160.333,130.833 161,129.5C 163.063,127.266 165.229,125.266 167.5,123.5 Z"/></g>
<g><path style="opacity:1" fill="#7cc1e6" d="M 362.5,123.5 C 362.785,125.288 362.452,126.955 361.5,128.5C 360.571,127.311 360.238,125.978 360.5,124.5C 361.167,124.167 361.833,123.833 362.5,123.5 Z"/></g>
<g><path style="opacity:1" fill="#60b5e2" d="M 341.5,126.5 C 341.5,127.167 341.5,127.833 341.5,128.5C 334.167,128.5 326.833,128.5 319.5,128.5C 319.5,127.833 319.5,127.167 319.5,126.5C 322.247,126.813 324.914,126.48 327.5,125.5C 326.975,124.808 326.308,124.308 325.5,124C 326,123.833 326.5,123.667 327,123.5C 331.539,125.841 336.372,126.841 341.5,126.5 Z"/></g>
<g><path style="opacity:1" fill="#b4dbf0" d="M 125.5,124.5 C 128.212,124.737 130.712,124.737 133,124.5C 133.863,126.749 133.363,128.582 131.5,130C 129.527,130.495 127.527,130.662 125.5,130.5C 125.918,129.778 126.584,129.278 127.5,129C 126.333,128.5 125.5,127.667 125,126.5C 124.237,129.063 123.737,129.063 123.5,126.5C 123.747,125.287 124.414,124.62 125.5,124.5 Z"/></g>
<g><path style="opacity:1" fill="#add9f0" d="M 200.5,105.5 C 201.167,105.5 201.833,105.5 202.5,105.5C 207.167,105.5 211.833,105.5 216.5,105.5C 216.5,106.167 216.167,106.5 215.5,106.5C 210.821,106.334 206.155,106.501 201.5,107C 201.769,113.297 202.102,119.797 202.5,126.5C 203.5,126.5 204.5,126.5 205.5,126.5C 206.167,113.167 206.833,113.167 207.5,126.5C 208.5,126.5 209.5,126.5 210.5,126.5C 211.167,113.167 211.833,113.167 212.5,126.5C 213.5,126.5 214.5,126.5 215.5,126.5C 215.5,126.833 215.5,127.167 215.5,127.5C 212.833,127.5 210.167,127.5 207.5,127.5C 206.833,139.5 206.167,139.5 205.5,127.5C 204.127,127.343 202.793,127.51 201.5,128C 201.295,134.075 201.628,140.242 202.5,146.5C 200.518,133.208 199.851,119.541 200.5,105.5 Z"/></g>
<g><path style="opacity:1" fill="#8bc7e9" d="M 356.5,126.5 C 357.209,125.596 358.209,125.263 359.5,125.5C 358.985,131.413 357.985,131.747 356.5,126.5 Z"/></g>
<g><path style="opacity:1" fill="#b6ddf2" d="M 280.5,128.5 C 287.648,127.508 294.981,127.175 302.5,127.5C 302.802,130.059 302.468,132.393 301.5,134.5C 301.5,132.5 301.5,130.5 301.5,128.5C 294.5,128.5 287.5,128.5 280.5,128.5 Z"/></g>
<g><path style="opacity:1" fill="#65b5e2" d="M 356.5,126.5 C 356.785,128.288 356.452,129.955 355.5,131.5C 354.571,130.311 354.238,128.978 354.5,127.5C 355.167,127.167 355.833,126.833 356.5,126.5 Z"/></g>
<g><path style="opacity:1" fill="#e3f3fa" d="M 370.5,126.5 C 370.833,126.5 371.167,126.5 371.5,126.5C 377.167,126.5 382.833,126.5 388.5,126.5C 388.833,126.5 389.167,126.5 389.5,126.5C 389.5,127.167 389.5,127.833 389.5,128.5C 389.167,128.5 388.833,128.5 388.5,128.5C 382.833,128.5 377.167,128.5 371.5,128.5C 371.167,128.5 370.833,128.5 370.5,128.5C 370.5,127.833 370.5,127.167 370.5,126.5 Z"/></g>
<g><path style="opacity:1" fill="#f9fcfd" d="M 33.5,151.5 C 28.8333,151.5 24.1667,151.5 19.5,151.5C 19.5,146.5 19.5,141.5 19.5,136.5C 19.1682,131.492 21.5015,128.492 26.5,127.5C 29.7394,128.404 32.0728,130.404 33.5,133.5C 33.394,139.319 33.394,145.319 33.5,151.5 Z"/></g>
<g><path style="opacity:1" fill="#48a7dc" d="M 197.5,130.5 C 196.167,130.5 194.833,130.5 193.5,130.5C 193.051,128.023 193.717,126.023 195.5,124.5C 197.283,126.023 197.949,128.023 197.5,130.5 Z"/></g>
<g><path style="opacity:1" fill="#fbfdfe" d="M 280.5,128.5 C 287.5,128.5 294.5,128.5 301.5,128.5C 301.5,130.5 301.5,132.5 301.5,134.5C 301.708,138.57 301.375,142.904 300.5,147.5C 299.833,147.833 299.167,148.167 298.5,148.5C 294.833,144.5 291.167,140.5 287.5,136.5C 285.836,138.491 284.169,140.491 282.5,142.5C 281.186,140.105 281.186,137.605 282.5,135C 281.906,134.536 281.239,134.369 280.5,134.5C 280.5,132.5 280.5,130.5 280.5,128.5 Z"/></g>
<g><path style="opacity:1" fill="#9cd1ed" d="M 311.5,127.5 C 309.735,128.461 307.735,128.795 305.5,128.5C 305.5,130.5 305.5,132.5 305.5,134.5C 304.532,132.393 304.198,130.059 304.5,127.5C 306.833,127.5 309.167,127.5 311.5,127.5 Z"/></g>
<g><path style="opacity:1" fill="#1a8fd3" d="M 319.5,128.5 C 326.833,128.5 334.167,128.5 341.5,128.5C 341.5,130.167 341.5,131.833 341.5,133.5C 341.5,135.167 341.5,136.833 341.5,138.5C 334.167,138.5 326.833,138.5 319.5,138.5C 319.5,135.167 319.5,131.833 319.5,128.5 Z"/></g>
<g><path style="opacity:1" fill="#f7fbfd" d="M 237.5,132.5 C 234.615,132.806 231.948,132.473 229.5,131.5C 229.611,130.883 229.944,130.383 230.5,130C 233.5,129.333 236.5,129.333 239.5,130C 238.934,130.995 238.267,131.828 237.5,132.5 Z"/></g>
<g><path style="opacity:1" fill="#8ecaea" d="M 256.5,133.5 C 256.167,133.5 255.833,133.5 255.5,133.5C 250.168,132.397 244.834,132.231 239.5,133C 240.167,132 240.833,131 241.5,130C 246.202,129.172 250.869,129.338 255.5,130.5C 256.127,131.417 256.461,132.417 256.5,133.5 Z"/></g>
<g><path style="opacity:1" fill="#f7fbfd" d="M 266.5,131.5 C 264.052,132.473 261.385,132.806 258.5,132.5C 257.733,131.828 257.066,130.995 256.5,130C 259.5,129.333 262.5,129.333 265.5,130C 266.056,130.383 266.389,130.883 266.5,131.5 Z"/></g>
<g><path style="opacity:1" fill="#40a0da" d="M 128.5,121.5 C 130.833,121.5 133.167,121.5 135.5,121.5C 136.043,121.56 136.376,121.893 136.5,122.5C 135.381,126.09 134.714,129.423 134.5,132.5C 130.053,132.225 127.053,131.558 125.5,130.5C 127.527,130.662 129.527,130.495 131.5,130C 133.363,128.582 133.863,126.749 133,124.5C 130.712,124.737 128.212,124.737 125.5,124.5C 123.369,123.686 121.036,123.186 118.5,123C 126.5,122.333 126.5,121.667 118.5,121C 121.888,120.341 125.221,120.508 128.5,121.5 Z"/></g>
<g><path style="opacity:1" fill="#028ad1" d="M 193.5,130.5 C 194.833,130.5 196.167,130.5 197.5,130.5C 197.5,130.833 197.5,131.167 197.5,131.5C 196.527,133.948 196.194,136.615 196.5,139.5C 195.5,139.5 194.5,139.5 193.5,139.5C 193.5,136.5 193.5,133.5 193.5,130.5 Z"/></g>
<g><path style="opacity:1" fill="#f0f8fc" d="M 323.5,130.5 C 324.5,130.5 325.5,130.5 326.5,130.5C 326.5,132.5 326.5,134.5 326.5,136.5C 325.5,136.5 324.5,136.5 323.5,136.5C 323.5,134.5 323.5,132.5 323.5,130.5 Z"/></g>
<g><path style="opacity:1" fill="#eff7fc" d="M 334.5,130.5 C 335.5,130.5 336.5,130.5 337.5,130.5C 337.5,132.5 337.5,134.5 337.5,136.5C 336.5,136.5 335.5,136.5 334.5,136.5C 334.5,134.5 334.5,132.5 334.5,130.5 Z"/></g>
<g><path style="opacity:1" fill="#3298d7" d="M 111.5,128.5 C 114.813,129.045 118.146,129.545 121.5,130C 118.833,130.333 116.167,130.667 113.5,131C 120.271,131.679 126.938,132.845 133.5,134.5C 133.376,135.107 133.043,135.44 132.5,135.5C 131.458,134.209 130.292,134.209 129,135.5C 128.506,137.134 128.34,138.801 128.5,140.5C 127.596,139.791 127.263,138.791 127.5,137.5C 127.5,136.5 127.5,135.5 127.5,134.5C 126.167,134.5 124.833,134.5 123.5,134.5C 122.949,137.807 122.616,141.14 122.5,144.5C 121.662,144.158 121.328,143.492 121.5,142.5C 121.5,139.5 121.5,136.5 121.5,133.5C 118.09,133.384 116.756,135.05 117.5,138.5C 117.167,138.5 116.833,138.5 116.5,138.5C 116.66,136.801 116.494,135.134 116,133.5C 115,132.167 114,132.167 113,133.5C 111.553,137.958 111.386,142.291 112.5,146.5C 112.158,147.338 111.492,147.672 110.5,147.5C 110.018,146.584 109.685,145.584 109.5,144.5C 110.324,138.84 110.991,133.507 111.5,128.5 Z"/></g>
<g><path style="opacity:1" fill="#83c1e7" d="M 113.5,111.5 C 119.034,111.668 124.367,112.335 129.5,113.5C 129.631,114.239 129.464,114.906 129,115.5C 127.644,114.62 126.144,114.286 124.5,114.5C 124.34,116.199 124.506,117.866 125,119.5C 125.333,118.5 125.667,117.5 126,116.5C 126.359,119.544 127.026,119.878 128,117.5C 129.098,118.967 130.598,119.801 132.5,120C 130.942,120.21 129.609,120.71 128.5,121.5C 125.221,120.508 121.888,120.341 118.5,121C 126.5,121.667 126.5,122.333 118.5,123C 121.036,123.186 123.369,123.686 125.5,124.5C 124.414,124.62 123.747,125.287 123.5,126.5C 123.737,129.063 124.237,129.063 125,126.5C 125.5,127.667 126.333,128.5 127.5,129C 126.584,129.278 125.918,129.778 125.5,130.5C 127.053,131.558 130.053,132.225 134.5,132.5C 134.325,137.234 133.658,141.901 132.5,146.5C 132.091,142.93 132.091,139.264 132.5,135.5C 133.043,135.44 133.376,135.107 133.5,134.5C 126.938,132.845 120.271,131.679 113.5,131C 116.167,130.667 118.833,130.333 121.5,130C 118.146,129.545 114.813,129.045 111.5,128.5C 111.466,125.801 112.133,123.301 113.5,121C 112.833,120.667 112.167,120.333 111.5,120C 112.213,117.174 112.88,114.34 113.5,111.5 Z"/></g>
<g><path style="opacity:1" fill="#2392d4" d="M 143.5,131.5 C 142.511,136.975 142.178,142.642 142.5,148.5C 141.5,148.5 140.5,148.5 139.5,148.5C 139.824,141.646 139.491,134.979 138.5,128.5C 139.892,123.572 141.558,123.406 143.5,128C 142.316,129.145 142.316,130.312 143.5,131.5 Z"/></g>
<g><path style="opacity:1" fill="#cae6f5" d="M 329.5,130.5 C 330.5,130.5 331.5,130.5 332.5,130.5C 332.5,132.5 332.5,134.5 332.5,136.5C 331.167,136.5 329.833,136.5 328.5,136.5C 328.325,134.379 328.659,132.379 329.5,130.5 Z"/></g>
<g><path style="opacity:1" fill="#f5fafd" d="M 116.5,138.5 C 115.612,141.054 115.279,143.721 115.5,146.5C 114.5,146.5 113.5,146.5 112.5,146.5C 111.386,142.291 111.553,137.958 113,133.5C 114,132.167 115,132.167 116,133.5C 116.494,135.134 116.66,136.801 116.5,138.5 Z"/></g>
<g><path style="opacity:1" fill="#f9fcfd" d="M 121.5,142.5 C 120.596,143.209 120.263,144.209 120.5,145.5C 119.5,145.5 118.5,145.5 117.5,145.5C 117.5,143.167 117.5,140.833 117.5,138.5C 116.756,135.05 118.09,133.384 121.5,133.5C 121.5,136.5 121.5,139.5 121.5,142.5 Z"/></g>
<g><path style="opacity:1" fill="#add7ef" d="M 229.5,131.5 C 231.948,132.473 234.615,132.806 237.5,132.5C 237.5,132.833 237.5,133.167 237.5,133.5C 234.512,135.273 231.179,135.94 227.5,135.5C 227.66,133.847 228.326,132.514 229.5,131.5 Z"/></g>
<g><path style="opacity:1" fill="#3f9dd9" d="M 267.5,131.5 C 267.833,131.5 268.167,131.5 268.5,131.5C 270.934,135.272 272.934,139.272 274.5,143.5C 273.596,144.209 273.263,145.209 273.5,146.5C 274.5,146.833 275.167,147.5 275.5,148.5C 272.895,150.17 272.895,150.504 275.5,149.5C 276.043,149.56 276.376,149.893 276.5,150.5C 274.719,152.546 272.719,152.88 270.5,151.5C 269.779,149.618 268.779,149.285 267.5,150.5C 261.239,151.793 254.739,152.46 248,152.5C 241.261,152.46 234.761,151.793 228.5,150.5C 227.221,149.285 226.221,149.618 225.5,151.5C 223.901,152.562 222.234,152.562 220.5,151.5C 222.628,150.719 222.795,149.719 221,148.5C 220.617,149.056 220.117,149.389 219.5,149.5C 219.5,148.833 219.167,148.5 218.5,148.5C 220.595,143.973 222.928,139.639 225.5,135.5C 225.5,136.167 225.5,136.833 225.5,137.5C 225.947,139.973 226.947,140.14 228.5,138C 227.906,137.536 227.239,137.369 226.5,137.5C 226.833,136.833 227.167,136.167 227.5,135.5C 231.179,135.94 234.512,135.273 237.5,133.5C 237.263,134.791 237.596,135.791 238.5,136.5C 243.787,135.658 249.12,135.324 254.5,135.5C 255.338,135.158 255.672,134.492 255.5,133.5C 255.833,133.5 256.167,133.5 256.5,133.5C 257.167,133.5 257.833,133.5 258.5,133.5C 261.499,135.437 264.833,135.937 268.5,135C 267.663,133.989 267.33,132.822 267.5,131.5 Z"/></g>
<g><path style="opacity:1" fill="#b0d9f0" d="M 266.5,131.5 C 266.833,131.5 267.167,131.5 267.5,131.5C 267.33,132.822 267.663,133.989 268.5,135C 264.833,135.937 261.499,135.437 258.5,133.5C 258.5,133.167 258.5,132.833 258.5,132.5C 261.385,132.806 264.052,132.473 266.5,131.5 Z"/></g>
<g><path style="opacity:1" fill="#f8fbfd" d="M 127.5,137.5 C 126.527,139.948 126.194,142.615 126.5,145.5C 124.901,145.768 123.568,145.434 122.5,144.5C 122.616,141.14 122.949,137.807 123.5,134.5C 124.833,134.5 126.167,134.5 127.5,134.5C 127.5,135.5 127.5,136.5 127.5,137.5 Z"/></g>
<g><path style="opacity:1" fill="#64b5e2" d="M 254.5,135.5 C 249.12,135.324 243.787,135.658 238.5,136.5C 241.482,134.759 244.815,133.759 248.5,133.5C 250.799,133.599 252.799,134.266 254.5,135.5 Z"/></g>
<g><path style="opacity:1" fill="#0088d1" d="M 161.5,135.5 C 165.833,135.5 170.167,135.5 174.5,135.5C 174.5,136.167 174.5,136.833 174.5,137.5C 170.5,137.5 166.5,137.5 162.5,137.5C 162.167,137.5 161.833,137.5 161.5,137.5C 161.5,136.833 161.5,136.167 161.5,135.5 Z"/></g>
<g><path style="opacity:1" fill="#68b8e4" d="M 280.5,134.5 C 281.239,134.369 281.906,134.536 282.5,135C 281.186,137.605 281.186,140.105 282.5,142.5C 282.44,143.043 282.107,143.376 281.5,143.5C 280.516,140.572 280.183,137.572 280.5,134.5 Z"/></g>
<g><path style="opacity:1" fill="#fbfdfe" d="M 242.5,136.5 C 253.806,135.315 261.473,139.981 265.5,150.5C 253.833,151.833 242.167,151.833 230.5,150.5C 232,147.5 233.5,144.5 235,141.5C 237.479,139.686 239.979,138.019 242.5,136.5 Z"/></g>
<g><path style="opacity:1" fill="#57b0e0" d="M 53.5,137.5 C 53.1805,142.363 53.5139,147.03 54.5,151.5C 54.44,152.043 54.1067,152.376 53.5,152.5C 52.1863,147.348 52.1863,142.348 53.5,137.5 Z"/></g>
<g><path style="opacity:1" fill="#f4f9fc" d="M 53.5,137.5 C 57.5,137.5 61.5,137.5 65.5,137.5C 65.8016,140.059 65.4682,142.393 64.5,144.5C 62.3496,137.815 59.1829,137.149 55,142.5C 54.502,145.482 54.3354,148.482 54.5,151.5C 53.5139,147.03 53.1805,142.363 53.5,137.5 Z"/></g>
<g><path style="opacity:1" fill="#99cfec" d="M 53.5,137.5 C 57.6344,136.515 61.9677,136.182 66.5,136.5C 66.8275,141.544 66.4941,146.544 65.5,151.5C 64.5258,149.257 64.1924,146.924 64.5,144.5C 65.4682,142.393 65.8016,140.059 65.5,137.5C 61.5,137.5 57.5,137.5 53.5,137.5 Z"/></g>
<g><path style="opacity:1" fill="#39a0da" d="M 82.5,137.5 C 78.1667,137.5 73.8333,137.5 69.5,137.5C 69.5,142.167 69.5,146.833 69.5,151.5C 68.5128,146.695 68.1795,141.695 68.5,136.5C 73.3633,136.181 78.03,136.514 82.5,137.5 Z"/></g>
<g><path style="opacity:1" fill="#f9fcfd" d="M 82.5,137.5 C 82.6658,142.179 82.4992,146.845 82,151.5C 81.6667,148.833 81.3333,146.167 81,143.5C 78.8446,137.992 75.8446,137.325 72,141.5C 71.0042,144.909 70.1708,148.242 69.5,151.5C 69.5,146.833 69.5,142.167 69.5,137.5C 73.8333,137.5 78.1667,137.5 82.5,137.5 Z"/></g>
<g><path style="opacity:1" fill="#ebf5fb" d="M 85.5,137.5 C 89.8333,137.5 94.1667,137.5 98.5,137.5C 98.6658,142.179 98.4992,146.845 98,151.5C 98.7652,145.919 96.9319,141.585 92.5,138.5C 90.8513,139.648 89.3513,140.981 88,142.5C 87.8214,145.553 87.3214,148.553 86.5,151.5C 85.5067,146.88 85.1734,142.214 85.5,137.5 Z"/></g>
<g><path style="opacity:1" fill="#84c5e9" d="M 102.5,137.5 C 102.183,141.702 102.517,145.702 103.5,149.5C 103.44,150.043 103.107,150.376 102.5,150.5C 101.189,146.016 101.189,141.683 102.5,137.5 Z"/></g>
<g><path style="opacity:1" fill="#45a5dc" d="M 161.5,135.5 C 161.5,136.167 161.5,136.833 161.5,137.5C 160.17,138.832 158.503,139.665 156.5,140C 158.119,140.236 159.119,141.069 159.5,142.5C 157.65,141.305 156.65,141.971 156.5,144.5C 156.737,147.063 157.237,147.063 158,144.5C 158.278,145.416 158.778,146.082 159.5,146.5C 159.5,147.167 159.5,147.833 159.5,148.5C 157.146,147.506 156.146,148.506 156.5,151.5C 155.518,148.038 155.185,144.371 155.5,140.5C 154.167,140.5 152.833,140.5 151.5,140.5C 152.568,139.566 153.901,139.232 155.5,139.5C 155.454,134.15 157.454,132.817 161.5,135.5 Z"/></g>
<g><path style="opacity:1" fill="#71bce4" d="M 215.5,127.5 C 215.5,133.833 215.5,140.167 215.5,146.5C 212.833,146.5 210.167,146.5 207.5,146.5C 206.833,134.5 206.167,134.5 205.5,146.5C 204.5,146.5 203.5,146.5 202.5,146.5C 201.628,140.242 201.295,134.075 201.5,128C 202.793,127.51 204.127,127.343 205.5,127.5C 206.167,139.5 206.833,139.5 207.5,127.5C 210.167,127.5 212.833,127.5 215.5,127.5 Z"/></g>
<g><path style="opacity:1" fill="#b6daf0" d="M 262.5,136.5 C 263.873,136.343 265.207,136.51 266.5,137C 264.924,137.44 263.59,138.273 262.5,139.5C 259.955,138.451 259.955,137.451 262.5,136.5 Z"/></g>
<g><path style="opacity:1" fill="#5db3e1" d="M 161.5,137.5 C 161.833,137.5 162.167,137.5 162.5,137.5C 162.181,142.363 162.514,147.03 163.5,151.5C 163.44,152.043 163.107,152.376 162.5,152.5C 161.506,147.544 161.173,142.544 161.5,137.5 Z"/></g>
<g><path style="opacity:1" fill="#b1d9f0" d="M 162.5,137.5 C 166.5,137.5 170.5,137.5 174.5,137.5C 174.827,142.214 174.493,146.88 173.5,151.5C 172.509,147.555 172.176,143.555 172.5,139.5C 169.5,139.5 166.5,139.5 163.5,139.5C 163.5,143.5 163.5,147.5 163.5,151.5C 162.514,147.03 162.181,142.363 162.5,137.5 Z"/></g>
<g><path style="opacity:1" fill="#c5e3f3" d="M 225.5,137.5 C 225.833,137.5 226.167,137.5 226.5,137.5C 227.239,137.369 227.906,137.536 228.5,138C 226.947,140.14 225.947,139.973 225.5,137.5 Z"/></g>
<g><path style="opacity:1" fill="#c2e1f3" d="M 229.5,137.5 C 231.435,136.291 233.435,136.458 235.5,138C 234.407,139.365 233.074,139.699 231.5,139C 231.833,138.667 232.167,138.333 232.5,138C 231.552,137.517 230.552,137.351 229.5,137.5 Z"/></g>
<g><path style="opacity:1" fill="#d7ecf7" d="M 268.5,136.5 C 271.382,139.388 271.048,139.888 267.5,138C 268.056,137.617 268.389,137.117 268.5,136.5 Z"/></g>
<g><path style="opacity:1" fill="#99d0ec" d="M 341.5,133.5 C 342.434,134.568 342.768,135.901 342.5,137.5C 342.666,142.179 342.499,146.845 342,151.5C 341.501,147.514 341.334,143.514 341.5,139.5C 334.167,139.5 326.833,139.5 319.5,139.5C 319.5,139.167 319.5,138.833 319.5,138.5C 326.833,138.5 334.167,138.5 341.5,138.5C 341.5,136.833 341.5,135.167 341.5,133.5 Z"/></g>
<g><path style="opacity:1" fill="#44a4db" d="M 184.5,140.5 C 183.229,141.685 182.229,143.685 181.5,146.5C 182.5,146.5 183.5,146.5 184.5,146.5C 184.881,148.942 184.214,149.609 182.5,148.5C 181.614,149.325 181.281,150.325 181.5,151.5C 180.833,151.5 180.167,151.5 179.5,151.5C 179.854,148.506 178.854,147.506 176.5,148.5C 176.5,147.833 176.5,147.167 176.5,146.5C 177.222,146.082 177.722,145.416 178,144.5C 178.763,147.063 179.263,147.063 179.5,144.5C 179.35,141.971 178.35,141.305 176.5,142.5C 176.881,141.069 177.881,140.236 179.5,140C 177.497,139.665 175.83,138.832 174.5,137.5C 174.5,136.833 174.5,136.167 174.5,135.5C 178.546,132.817 180.546,134.15 180.5,139.5C 181.959,139.433 183.292,139.766 184.5,140.5 Z"/></g>
<g><path style="opacity:1" fill="#badff2" d="M 184.5,140.5 C 185.482,143.962 185.815,147.629 185.5,151.5C 184.167,151.5 182.833,151.5 181.5,151.5C 181.281,150.325 181.614,149.325 182.5,148.5C 184.214,149.609 184.881,148.942 184.5,146.5C 183.5,146.5 182.5,146.5 181.5,146.5C 182.229,143.685 183.229,141.685 184.5,140.5 Z"/></g>
<g><path style="opacity:1" fill="#a7d4ee" d="M 190.5,151.5 C 190.131,147.232 189.131,143.232 187.5,139.5C 187.238,138.022 187.571,136.689 188.5,135.5C 189.086,135.709 189.586,136.043 190,136.5C 190.499,141.489 190.666,146.489 190.5,151.5 Z"/></g>
<g><path style="opacity:1" fill="#fdfefe" d="M 369.5,140.5 C 375.882,142.399 382.549,143.066 389.5,142.5C 389.5,145.5 389.5,148.5 389.5,151.5C 375.323,151.829 361.323,151.496 347.5,150.5C 354.838,147.164 362.171,143.831 369.5,140.5 Z"/></g>
<g><path style="opacity:1" fill="#bbdff2" d="M 138.5,128.5 C 139.491,134.979 139.824,141.646 139.5,148.5C 140.5,148.5 141.5,148.5 142.5,148.5C 142.178,142.642 142.511,136.975 143.5,131.5C 143.5,138.167 143.5,144.833 143.5,151.5C 141.307,150.105 138.974,149.105 136.5,148.5C 138.459,142.25 139.126,135.584 138.5,128.5 Z"/></g>
<g><path style="opacity:1" fill="#fbfdfe" d="M 166.5,141.5 C 170.235,141.546 171.568,143.213 170.5,146.5C 169.614,145.675 169.281,144.675 169.5,143.5C 168.5,143.5 167.5,143.5 166.5,143.5C 166.719,144.675 166.386,145.675 165.5,146.5C 164.348,144.603 164.681,142.936 166.5,141.5 Z"/></g>
<g><path style="opacity:1" fill="#0a8cd2" d="M 193.5,141.5 C 194.5,141.5 195.5,141.5 196.5,141.5C 196.5,143.833 196.5,146.167 196.5,148.5C 195.5,148.5 194.5,148.5 193.5,148.5C 193.5,146.167 193.5,143.833 193.5,141.5 Z"/></g>
<g><path style="opacity:1" fill="#6dbbe4" d="M 197.5,131.5 C 197.5,138.167 197.5,144.833 197.5,151.5C 196.533,150.194 195.199,149.527 193.5,149.5C 193.5,149.167 193.5,148.833 193.5,148.5C 194.5,148.5 195.5,148.5 196.5,148.5C 196.5,146.167 196.5,143.833 196.5,141.5C 195.5,141.5 194.5,141.5 193.5,141.5C 193.5,140.833 193.5,140.167 193.5,139.5C 194.5,139.5 195.5,139.5 196.5,139.5C 196.194,136.615 196.527,133.948 197.5,131.5 Z"/></g>
<g><path style="opacity:1" fill="#5ab1e0" d="M 370.5,128.5 C 370.833,128.5 371.167,128.5 371.5,128.5C 371.5,132.833 371.5,137.167 371.5,141.5C 376.22,141.775 376.554,140.941 372.5,139C 374.684,138.558 376.684,139.058 378.5,140.5C 381.768,141.487 385.102,141.82 388.5,141.5C 388.5,137.167 388.5,132.833 388.5,128.5C 388.833,128.5 389.167,128.5 389.5,128.5C 389.5,133.167 389.5,137.833 389.5,142.5C 382.549,143.066 375.882,142.399 369.5,140.5C 370.43,136.6 370.763,132.6 370.5,128.5 Z"/></g>
<g><path style="opacity:1" fill="#0c8bd1" d="M 371.5,128.5 C 377.167,128.5 382.833,128.5 388.5,128.5C 388.5,132.833 388.5,137.167 388.5,141.5C 385.102,141.82 381.768,141.487 378.5,140.5C 376.684,139.058 374.684,138.558 372.5,139C 376.554,140.941 376.22,141.775 371.5,141.5C 371.5,137.167 371.5,132.833 371.5,128.5 Z"/></g>
<g><path style="opacity:1" fill="#8bc9ea" d="M 377.5,132.5 C 379.275,132.021 381.109,131.687 383,131.5C 383.5,131.667 384,131.833 384.5,132C 383.167,132.667 383.167,133.333 384.5,134C 382.5,134.667 380.5,134.667 378.5,134C 379.712,132.893 379.379,132.393 377.5,132.5 Z"/></g>
<g><path style="opacity:1" fill="#f6fafd" d="M 159.5,142.5 C 159.5,143.833 159.5,145.167 159.5,146.5C 158.778,146.082 158.278,145.416 158,144.5C 157.237,147.063 156.737,147.063 156.5,144.5C 156.65,141.971 157.65,141.305 159.5,142.5 Z"/></g>
<g><path style="opacity:1" fill="#fafdfe" d="M 176.5,146.5 C 176.5,145.167 176.5,143.833 176.5,142.5C 178.35,141.305 179.35,141.971 179.5,144.5C 179.263,147.063 178.763,147.063 178,144.5C 177.722,145.416 177.222,146.082 176.5,146.5 Z"/></g>
<g><path style="opacity:1" fill="#edf6fb" d="M 152.5,142.5 C 154.476,143.427 154.809,144.76 153.5,146.5C 152.571,145.311 152.238,143.978 152.5,142.5 Z"/></g>
<g><path style="opacity:1" fill="#bedff2" d="M 264.5,141.5 C 270.208,141.492 270.541,141.992 265.5,143C 266.654,143.914 266.487,144.747 265,145.5C 263.232,144.318 263.065,142.985 264.5,141.5 Z"/></g>
<g><path style="opacity:1" fill="#7cbfe6" d="M 127.5,137.5 C 127.263,138.791 127.596,139.791 128.5,140.5C 128.167,142.5 127.833,144.5 127.5,146.5C 123.5,146.5 119.5,146.5 115.5,146.5C 115.279,143.721 115.612,141.054 116.5,138.5C 116.833,138.5 117.167,138.5 117.5,138.5C 117.5,140.833 117.5,143.167 117.5,145.5C 118.5,145.5 119.5,145.5 120.5,145.5C 120.263,144.209 120.596,143.209 121.5,142.5C 121.328,143.492 121.662,144.158 122.5,144.5C 123.568,145.434 124.901,145.768 126.5,145.5C 126.194,142.615 126.527,139.948 127.5,137.5 Z"/></g>
<g><path style="opacity:1" fill="#add7ef" d="M 223.5,142.5 C 230.966,144.705 231.133,147.038 224,149.5C 222.049,147.863 222.216,146.363 224.5,145C 223.748,144.329 223.414,143.496 223.5,142.5 Z"/></g>
<g><path style="opacity:1" fill="#a6d4ee" d="M 273.5,146.5 C 273.585,147.995 272.919,148.995 271.5,149.5C 265.053,147.355 265.053,145.022 271.5,142.5C 272.711,143.274 272.711,144.107 271.5,145C 272.044,145.717 272.711,146.217 273.5,146.5 Z"/></g>
<g><path style="opacity:1" fill="#76bce5" d="M 327.5,144.5 C 330.187,144.336 332.854,144.503 335.5,145C 334.185,146.395 334.519,147.395 336.5,148C 333.833,148.667 331.167,148.667 328.5,148C 329.167,147.667 329.833,147.333 330.5,147C 328.881,146.764 327.881,145.931 327.5,144.5 Z"/></g>
<g><path style="opacity:1" fill="#d7ebf7" d="M 164.5,147.5 C 166.833,147.5 169.167,147.5 171.5,147.5C 171.724,151.515 170.557,152.181 168,149.5C 165.443,152.181 164.276,151.515 164.5,147.5 Z"/></g>
<g><path style="opacity:1" fill="#fefefe" d="M 179.5,151.5 C 178.603,150.402 177.77,150.402 177,151.5C 176.517,150.552 176.351,149.552 176.5,148.5C 178.854,147.506 179.854,148.506 179.5,151.5 Z"/></g>
<g><path style="opacity:1" fill="#f9fcfd" d="M 159.5,148.5 C 159.649,149.552 159.483,150.552 159,151.5C 158.23,150.402 157.397,150.402 156.5,151.5C 156.146,148.506 157.146,147.506 159.5,148.5 Z"/></g>
<g><path style="opacity:1" fill="#f7fbfd" d="M 275.5,148.5 C 275.5,148.833 275.5,149.167 275.5,149.5C 272.895,150.504 272.895,150.17 275.5,148.5 Z"/></g>
<g><path style="opacity:1" fill="#e6f3fa" d="M 152.5,148.5 C 154.465,148.948 154.798,149.948 153.5,151.5C 152.614,150.675 152.281,149.675 152.5,148.5 Z"/></g>
<g><path style="opacity:1" fill="#d6ebf7" d="M 220.5,151.5 C 219.662,151.158 219.328,150.492 219.5,149.5C 220.117,149.389 220.617,149.056 221,148.5C 222.795,149.719 222.628,150.719 220.5,151.5 Z"/></g>
<g><path style="opacity:1" fill="#f7fbfd" d="M 228.5,150.5 C 227.791,151.404 226.791,151.737 225.5,151.5C 226.221,149.618 227.221,149.285 228.5,150.5 Z"/></g>
<g><path style="opacity:1" fill="#f3f9fc" d="M 270.5,151.5 C 269.209,151.737 268.209,151.404 267.5,150.5C 268.779,149.285 269.779,149.618 270.5,151.5 Z"/></g>
<g><path style="opacity:1" fill="#53aee0" d="M 19.5,136.5 C 19.5,141.5 19.5,146.5 19.5,151.5C 24.1667,151.5 28.8333,151.5 33.5,151.5C 28.6946,152.487 23.6946,152.821 18.5,152.5C 18.1786,146.974 18.5119,141.64 19.5,136.5 Z"/></g>
<g><path style="opacity:1" fill="#42a7dd" d="M 347.5,150.5 C 361.323,151.496 375.323,151.829 389.5,151.5C 389.5,151.833 389.5,152.167 389.5,152.5C 374.83,152.667 360.163,152.5 345.5,152C 346.044,151.283 346.711,150.783 347.5,150.5 Z"/></g>
</svg>
